<svg width="123" height="66" viewBox="0 0 123 66" fill="none" xmlns="http://www.w3.org/2000/svg">
<path d="M74.7246 36.0184C68.3146 39.2784 63.0346 43.0084 59.1046 45.8884C55.3746 48.6084 49.8146 52.7685 45.5446 56.4585C44.9646 57.3085 44.3746 58.0085 43.9146 58.5585C42.5946 60.1085 41.8146 60.5784 41.1946 60.2684C40.6946 59.9584 40.8446 59.1785 41.7746 58.1685C42.7046 57.1185 44.1046 56.3385 44.8846 55.6785C46.4746 53.1485 48.9246 48.9184 50.7946 46.2784C52.8546 43.3284 56.1146 39.5984 59.6146 37.3784C60.3946 36.8684 61.1646 36.4085 62.0246 36.0985C61.5546 36.1785 60.9746 36.3284 60.5046 36.4884C59.3046 36.8784 57.0046 37.9685 54.4046 39.6785C51.7246 41.4285 47.3746 45.5084 44.4246 48.3784C39.5646 53.0784 37.3146 55.1385 33.9346 57.6985C31.7546 59.3285 29.0046 60.8084 26.9046 61.6184C28.3846 63.4084 30.9046 64.8084 33.9746 64.8784C39.4546 65.0684 43.9946 62.7385 46.8746 58.3485C47.1446 57.9185 47.3046 57.7684 47.4146 57.8784C47.6046 57.9984 47.5746 58.2284 47.2246 58.7684C44.3546 63.1984 39.8446 65.6084 33.9746 65.4884C30.5946 65.4084 27.9146 63.8584 26.2846 61.8784C25.0046 62.3484 22.1246 62.8885 19.9146 62.9685C16.2246 63.0485 11.9146 61.7284 12.1446 55.8584C12.3046 51.8184 14.7846 47.6985 18.2046 44.5485C21.8146 41.1285 27.4146 38.6084 31.6846 38.6084C32.3846 38.6084 33.0446 38.6884 33.7046 38.8784C38.9846 35.1884 45.5146 33.3584 52.4346 33.3584C57.4846 33.3584 60.7846 34.4484 62.2246 34.8784C63.8146 35.3484 65.6446 36.0785 66.2246 36.4285C66.5346 36.6185 66.7646 36.8184 66.5746 37.0084C66.4546 37.1284 66.2646 36.9284 65.9146 36.7784C65.3746 36.5484 64.3646 36.1585 63.5046 35.9285C63.0346 36.0885 61.8746 36.9385 60.8646 38.3385C59.8946 39.6585 57.6746 42.4985 54.7646 46.1885C52.7846 48.7485 49.6346 51.8584 47.5046 54.1484C50.8446 51.2784 55.9346 47.3085 58.6546 45.3285C63.8246 41.5185 69.4946 37.9085 74.3846 35.5385C77.1446 34.2185 80.7946 33.2085 83.9446 33.2085C86.3546 33.2085 89.6946 33.7184 90.5146 35.6584C90.7446 36.1984 90.5146 36.7485 90.2446 36.8285C90.0546 36.9085 89.8546 36.4385 89.4246 35.9385C88.1846 34.4185 85.6146 33.7584 84.0646 33.7584C83.3246 33.7584 82.4746 33.7984 81.7346 33.8784C81.3046 33.9984 80.8046 34.1484 80.3346 34.3884C76.7246 36.0184 69.7646 43.2084 65.8446 47.5184C62.1546 51.6384 59.6246 54.5484 57.9546 56.6484C56.0546 59.0984 55.7046 59.6384 55.0046 59.3684C54.5746 59.2084 54.1146 58.5484 54.4646 57.2684C55.0846 55.0584 58.9346 50.0385 63.7146 45.5785C69.6546 40.0585 74.8646 36.1785 78.9046 34.4685C77.3546 34.8585 75.9146 35.4384 74.7446 36.0184H74.7246ZM31.6746 39.1685C27.8246 39.1685 22.5446 42.7785 19.7046 45.5385C16.2846 48.7985 13.0246 52.4184 12.7846 56.0284C12.4746 61.3084 16.6746 62.4384 19.7346 62.3584C21.7146 62.3184 24.2846 61.6184 25.6046 60.9984C25.0646 60.1084 24.5946 58.7885 24.4346 57.8485C22.9146 58.3185 21.5246 58.5485 20.4346 58.5485C19.1946 58.5485 18.4146 58.3884 17.4846 57.7684C16.9046 57.3384 16.5546 56.5984 16.8646 56.4884C17.0246 56.4484 17.0546 56.7584 17.3646 57.0284C18.0246 57.6884 19.1546 57.9585 20.4746 57.9585C21.5646 57.9585 22.9246 57.6884 24.3246 57.1084C24.2846 56.7984 24.2446 56.3284 24.2046 55.6284C24.0446 50.4984 27.1146 43.8585 33.1446 39.3085C32.6446 39.1885 32.1746 39.1484 31.6646 39.1484L31.6746 39.1685ZM35.1346 40.0985C29.0746 44.0985 24.8046 51.3684 24.9146 55.9084C24.9146 56.1784 24.9146 56.5684 24.9546 56.8784C26.8946 56.0584 29.1146 54.6284 31.2446 52.8784C34.1546 50.5484 36.8746 47.2885 37.0746 44.1785C37.2346 42.0385 36.3746 40.7585 35.1346 40.0985ZM52.4246 34.6584C46.6346 34.6584 40.1846 36.9484 35.6446 39.7484C36.8846 40.5284 37.8246 41.9584 37.6646 44.1384C37.4746 47.4384 35.6046 50.7085 31.9546 53.6985C29.5846 55.5985 27.2146 56.8484 25.0746 57.6184C25.1946 58.5884 25.6546 59.8284 26.2046 60.7284C28.4546 59.7184 30.4346 58.3585 32.4246 56.8385C35.6446 54.3885 38.8346 51.5984 42.7246 48.1384C46.1046 45.1484 49.4446 42.2685 53.7946 39.3185C55.8546 37.9185 58.8446 36.5184 60.1646 36.1284C60.9446 35.8984 61.6446 35.7384 62.4946 35.6284C60.2446 35.1984 57.4046 34.6584 52.4346 34.6584H52.4246Z" fill="black"/>
<path d="M62.6843 7.59867C60.0143 7.55867 57.0343 7.39857 53.4943 6.99857C51.4243 8.78857 46.3343 15.6286 42.5543 19.6486C35.1543 27.4886 24.9343 33.7686 16.1743 33.2586C12.9943 33.0586 10.0043 31.3886 10.4043 26.6186C10.8443 21.5686 15.0543 15.7586 19.4343 11.8986C22.2143 9.42859 25.8343 6.96867 28.6243 5.84867C24.5243 5.96867 18.0043 6.44864 13.0743 8.19864C7.18426 10.2686 1.18425 15.1586 0.664255 20.7686C0.304255 24.7486 2.33427 26.6986 4.52427 26.8186C4.96427 26.8586 5.51426 26.7786 5.51426 27.0186C5.51426 27.3386 5.07426 27.5386 4.63426 27.5386C1.92426 27.5386 -0.255729 25.1086 0.0242708 21.0586C0.504271 14.0186 6.78428 8.92856 12.5943 6.73856C18.9243 4.34856 24.5243 4.02857 31.9643 3.99857C36.0643 2.40857 39.2043 1.72867 41.0743 1.84867C43.4643 1.96867 44.3743 3.11865 44.5743 4.70865C47.9143 5.02865 51.5743 5.50856 53.4043 5.73856C54.7143 4.78856 56.3443 3.86861 57.2643 3.66861C57.5843 3.62861 58.1443 3.50861 58.0643 3.78861C58.0243 4.02861 57.6242 4.02864 57.5042 4.06864C56.7042 4.30864 55.5543 5.01859 54.4843 5.89859C57.4643 6.25859 59.7743 6.45865 63.2743 6.57865C69.5643 6.77865 75.7243 6.13856 75.3643 2.11856C75.2843 0.888563 74.3343 0.408558 73.2143 0.488558C72.7343 0.528558 72.5743 0.648597 72.5743 0.528597C72.5743 0.368597 72.6943 0.208656 73.1343 0.0886561C74.6843 -0.231344 76.6743 0.288646 76.8343 2.07865C77.1543 6.05865 69.0743 7.68855 62.6743 7.60855L62.6843 7.59867ZM44.5443 6.24857C43.9043 10.3086 39.6143 15.5186 35.7143 18.9386C30.7043 23.3186 24.4943 26.6186 21.1543 26.6186C20.5543 26.6186 19.4443 26.5386 18.8443 25.5486C18.6443 25.2286 18.5643 24.6386 18.8043 24.5186C18.9243 24.4386 18.8443 24.7586 19.0843 25.1986C19.3243 25.6386 19.8843 26.1086 20.8743 26.1086C23.8143 26.2286 29.7443 22.0886 34.3243 17.9886C38.1843 14.5686 43.3143 9.35865 43.9943 6.20865C41.0143 6.00865 37.7443 5.80863 34.9243 5.80863H31.8643C28.4043 7.59863 24.8243 10.1087 21.5243 12.9687C16.9543 16.9087 11.3443 23.2287 11.0643 27.0887C10.7043 31.2287 13.5343 32.5786 16.3143 32.5786C23.1143 32.5786 31.1943 26.2886 38.3143 19.2486C42.0143 15.5486 48.0643 9.89857 52.2343 6.87857C50.9643 6.75857 47.6943 6.51856 44.5543 6.23856L44.5443 6.24857ZM40.8843 2.34867C39.0943 2.34867 36.7443 3.10859 34.4843 4.01859C37.5043 4.05859 41.1243 4.33856 44.0343 4.61856C43.7943 3.38856 42.9243 2.34867 40.8943 2.34867H40.8843Z" fill="black"/>
<path d="M46.0644 33.7885L40.9844 16.6384H43.7344L47.6844 30.4585L51.5044 16.6384H53.8344L57.6544 30.3884L61.5744 16.6384H64.3244L59.2444 33.7885H56.3044L52.6844 20.7185L49.0644 33.7885H46.0844H46.0644Z" fill="black"/>
<path d="M63.0645 25.4485C63.0645 19.7185 66.8144 16.6484 71.4744 16.6484C76.9444 16.6484 79.8844 20.5985 79.8844 25.4485C79.8844 31.3685 76.2944 34.5385 71.4744 34.5385C65.9744 34.5385 63.0645 30.6185 63.0645 25.4485ZM77.1444 25.4485C77.1444 21.5985 74.9144 18.9784 71.4844 18.9784C68.0544 18.9784 65.8244 21.5985 65.8244 25.4485C65.8244 29.8485 68.3844 32.2085 71.4844 32.2085C75.1444 32.2085 77.1444 29.1685 77.1444 25.4485Z" fill="black"/>
<path d="M63.0645 50.6185C63.0645 44.8885 66.8144 41.8186 71.4744 41.8186C76.9444 41.8186 79.8844 45.7685 79.8844 50.6185C79.8844 56.5385 76.2944 59.7086 71.4744 59.7086C65.9744 59.7086 63.0645 55.7885 63.0645 50.6185ZM77.1444 50.6185C77.1444 46.7685 74.9144 44.1486 71.4844 44.1486C68.0544 44.1486 65.8244 46.7685 65.8244 50.6185C65.8244 55.0185 68.3844 57.3785 71.4844 57.3785C75.1444 57.3785 77.1444 54.3385 77.1444 50.6185Z" fill="black"/>
<path d="M79.1641 50.8785C79.1641 45.6385 82.3341 42.0085 86.9341 42.0085C89.5241 42.0085 91.6941 43.1386 92.9241 44.9486V35.2786H95.6141V59.5486H93.4741L93.1841 56.2485C92.0541 58.4785 89.7841 59.9086 86.9741 59.9086C82.3841 59.9086 79.1741 56.2185 79.1741 50.8785H79.1641ZM92.9141 50.8186C92.9141 46.9686 90.7141 44.3186 87.5441 44.3186C84.3741 44.3186 81.9441 47.0085 81.9441 50.8885C81.9441 54.7685 84.1741 57.5886 87.3841 57.5886C90.5941 57.5886 92.9141 54.8086 92.9141 50.8286V50.8186Z" fill="black"/>
<path d="M94.9443 51.4585C94.9443 45.5985 98.7344 42.4285 103.064 42.4285C107.784 42.4285 110.834 45.5985 110.924 51.0985V51.8385H97.6244C97.7844 55.4985 99.9243 57.9884 103.384 57.9884C105.774 57.9884 107.524 56.7885 108.234 54.5585H110.854C110.074 58.0885 107.294 60.3185 103.384 60.3185C98.3043 60.3185 94.9443 56.5985 94.9443 51.4485V51.4585ZM108.104 49.6184C107.614 46.6084 105.804 44.7684 103.054 44.7684C100.304 44.7684 98.3344 46.5484 97.7844 49.6184H108.104Z" fill="black"/>
<path d="M108.395 54.5685H111.015C111.205 56.7985 113.245 58.0284 115.835 58.0284C118.265 58.0284 119.425 57.0884 119.425 55.3784C119.425 53.7584 118.165 53.4085 116.385 52.7885L113.895 51.9485C111.375 51.1085 108.845 50.3284 108.845 47.2284C108.845 44.3184 111.115 42.4385 114.865 42.4385C118.615 42.4385 121.275 44.4785 121.695 48.2985H119.075C118.785 45.9085 117.105 44.7384 114.775 44.7384C112.675 44.7384 111.445 45.6785 111.445 47.1685C111.445 48.9485 113.325 49.3085 114.745 49.7885L117.075 50.5685C120.215 51.6085 122.095 52.6684 122.095 55.5184C122.095 58.5284 119.895 60.3385 115.725 60.3385C111.555 60.3385 108.635 58.1985 108.415 54.5785L108.395 54.5685Z" fill="black"/>
</svg>
