<svg width="840" height="1143" viewBox="0 0 840 1143" fill="none" xmlns="http://www.w3.org/2000/svg">
<path d="M596.67 158.844C563.62 175.674 536.38 194.904 516.15 209.724C496.92 223.744 468.28 245.174 446.24 264.204C443.24 268.614 440.23 272.214 437.83 275.024C431.02 283.034 427.01 285.444 423.81 283.834C421.21 282.234 422.01 278.224 426.81 273.014C431.62 267.604 438.83 263.604 442.83 260.194C451.04 247.174 463.66 225.344 473.28 211.724C483.9 196.504 500.72 177.274 518.75 165.854C522.76 163.254 526.76 160.844 531.17 159.244C528.77 159.644 525.76 160.444 523.36 161.244C517.15 163.244 505.33 168.854 491.91 177.674C478.09 186.684 455.65 207.724 440.43 222.544C415.39 246.784 403.77 257.394 386.35 270.614C375.13 279.024 360.91 286.644 350.09 290.844C357.7 300.054 370.72 307.274 386.55 307.674C414.79 308.674 438.23 296.654 453.05 274.024C454.45 271.824 455.25 271.024 455.85 271.624C456.85 272.224 456.65 273.424 454.85 276.234C440.03 299.074 416.79 311.484 386.55 310.884C369.12 310.484 355.3 302.474 346.89 292.254C340.28 294.654 325.46 297.464 314.04 297.864C295.01 298.264 272.78 291.454 273.98 261.204C274.78 240.374 287.6 219.144 305.23 202.914C323.86 185.284 352.7 172.264 374.74 172.264C378.35 172.264 381.75 172.664 385.16 173.664C412.4 154.634 446.05 145.224 481.71 145.224C507.75 145.224 524.78 150.834 532.19 153.034C540.4 155.434 549.82 159.244 552.82 161.044C554.42 162.044 555.62 163.044 554.62 164.044C554.02 164.644 553.02 163.644 551.21 162.844C548.41 161.644 543.2 159.634 538.79 158.434C536.39 159.234 530.38 163.644 525.17 170.854C520.16 177.664 508.75 192.284 493.72 211.314C483.5 224.534 467.28 240.554 456.26 252.374C473.49 237.554 499.73 217.124 513.75 206.904C540.39 187.274 569.64 168.644 594.87 156.424C609.09 149.614 627.92 144.404 644.15 144.404C656.57 144.404 673.8 147.004 678 157.024C679.2 159.824 678 162.634 676.6 163.034C675.6 163.434 674.6 161.034 672.39 158.424C665.98 150.614 652.76 147.204 644.75 147.204C640.94 147.204 636.54 147.404 632.73 147.804C630.53 148.404 627.92 149.204 625.52 150.404C606.89 158.814 571.04 195.874 550.81 218.104C531.78 239.334 518.76 254.354 510.15 265.174C500.34 277.794 498.53 280.594 494.93 279.194C492.73 278.394 490.32 274.984 492.13 268.374C495.33 256.954 515.17 231.114 539.8 208.084C570.45 179.644 597.29 159.614 618.12 150.794C610.11 152.794 602.7 155.804 596.69 158.804L596.67 158.844ZM374.74 175.064C354.91 175.064 327.67 193.694 313.05 207.914C295.42 224.734 278.6 243.364 277.4 261.994C275.8 289.234 297.43 295.044 313.26 294.644C323.48 294.444 336.7 290.834 343.51 287.634C340.71 283.024 338.3 276.214 337.5 271.414C329.69 273.814 322.48 275.014 316.87 275.014C310.46 275.014 306.45 274.214 301.65 271.014C298.65 268.814 296.84 265.004 298.45 264.404C299.25 264.204 299.45 265.804 301.05 267.204C304.46 270.614 310.26 272.014 317.07 272.014C322.68 272.014 329.69 270.614 336.9 267.604C336.7 266.004 336.5 263.604 336.3 259.994C335.5 233.554 351.32 199.304 382.37 175.864C379.77 175.264 377.36 175.064 374.76 175.064H374.74ZM392.56 179.874C361.31 200.504 339.28 237.964 339.88 261.394C339.88 262.794 339.88 264.804 340.08 266.404C350.1 262.194 361.51 254.784 372.53 245.774C387.55 233.754 401.57 216.934 402.58 200.904C403.38 189.884 398.97 183.274 392.56 179.874ZM481.7 151.834C451.85 151.834 418.6 163.654 395.17 178.074C401.58 182.084 406.39 189.494 405.59 200.704C404.59 217.734 394.97 234.554 376.14 249.984C363.92 259.794 351.7 266.204 340.69 270.214C341.29 275.224 343.69 281.634 346.5 286.244C358.12 281.034 368.33 274.024 378.55 266.214C395.18 253.594 411.6 239.174 431.63 221.344C449.06 205.924 466.28 191.094 488.72 175.874C499.34 168.664 514.76 161.454 521.57 159.444C525.58 158.244 529.18 157.444 533.59 156.844C521.97 154.644 507.35 151.834 481.71 151.834H481.7Z" fill="black"/>
<path d="M321.18 39.2336C307.44 39.0336 292.05 38.2036 273.8 36.1536C263.13 45.3836 236.88 80.6636 217.39 101.374C179.24 141.784 126.53 174.184 81.3998 171.524C64.9898 170.494 49.6098 161.884 51.6598 137.274C53.9198 111.224 75.6598 81.2836 98.2198 61.3836C112.58 48.6636 131.24 35.9536 145.6 30.2036C124.47 30.8236 90.8398 33.2836 65.3998 42.3036C35.0398 52.9736 4.06978 78.1936 1.40978 107.114C-0.440224 127.624 10.0198 137.674 21.3098 138.294C23.5698 138.494 26.4398 138.094 26.4398 139.324C26.4398 140.964 24.1798 141.994 21.9298 141.994C7.97978 141.994 -3.30022 129.484 -1.86022 108.564C0.599776 72.2636 33.0098 46.0036 62.9498 34.7236C95.5598 22.4136 124.48 20.7736 162.84 20.5736C183.97 12.3736 200.17 8.88358 209.81 9.49358C222.12 10.1136 226.83 16.0536 227.86 24.2636C245.09 25.9036 263.96 28.3636 273.39 29.5936C280.16 24.6736 288.57 19.9536 293.29 18.9236C294.93 18.7236 297.8 18.1036 297.39 19.5336C297.19 20.7636 295.13 20.7636 294.52 20.9736C290.42 22.2036 284.47 25.8936 278.93 30.4036C294.31 32.2536 306.21 33.2736 324.26 33.8936C356.67 34.9236 388.46 31.6336 386.61 10.9236C386.2 4.56359 381.28 2.10358 375.53 2.51358C373.07 2.71358 372.25 3.33358 372.25 2.71358C372.25 1.89358 372.86 1.07358 375.12 0.453585C383.12 -1.18642 393.37 1.48358 394.2 10.7136C395.84 31.2236 354.2 39.6336 321.18 39.2236V39.2336ZM227.65 32.2636C224.37 53.1836 202.22 80.0536 182.12 97.6936C156.28 120.254 124.28 137.284 107.05 137.284C103.97 137.284 98.2298 136.874 95.1498 131.744C94.1298 130.104 93.7098 127.024 94.9498 126.414C95.5698 126.004 95.1498 127.644 96.3898 129.904C97.6198 132.164 100.49 134.624 105.62 134.624C120.8 135.244 151.36 113.904 174.95 92.7836C194.85 75.1436 221.31 48.2736 224.79 32.0736C209.41 31.0436 192.59 30.0236 178.02 30.0236H162.23C144.39 39.2536 125.93 52.1736 108.9 66.9436C85.3098 87.2536 56.3898 119.864 54.9598 139.754C53.1098 161.084 67.6798 168.064 82.0298 168.064C117.1 168.064 158.74 135.654 195.46 99.3536C214.54 80.2836 245.71 51.1536 267.25 35.5636C260.69 34.9436 243.87 33.7136 227.66 32.2836L227.65 32.2636ZM208.78 12.1636C199.55 12.1636 187.45 16.0636 175.76 20.7736C191.35 20.9836 210.01 22.4136 224.99 23.8536C223.76 17.4936 219.25 12.1636 208.79 12.1636H208.78Z" fill="black"/>
<path d="M235.51 174.264L209.32 85.8436H223.5L243.85 157.074L263.53 85.8436H275.54L295.22 156.744L315.41 85.8436H329.59L303.4 174.264H288.22L269.54 106.864L250.86 174.264H235.51Z" fill="black"/>
<path d="M323.15 131.224C323.15 101.694 342.5 85.8436 366.52 85.8436C394.71 85.8436 409.89 106.194 409.89 131.224C409.89 161.754 391.37 178.104 366.52 178.104C338.16 178.104 323.15 157.914 323.15 131.224ZM395.72 131.224C395.72 111.374 384.21 97.8636 366.53 97.8636C348.85 97.8636 337.34 111.374 337.34 131.224C337.34 153.914 350.52 166.094 366.53 166.094C385.38 166.094 395.72 150.414 395.72 131.224Z" fill="black"/>
<path d="M536.58 234.114C536.58 204.584 555.93 188.734 579.95 188.734C608.14 188.734 623.32 209.084 623.32 234.114C623.32 264.644 604.8 280.994 579.95 280.994C551.59 280.994 536.58 260.804 536.58 234.114ZM609.15 234.114C609.15 214.264 597.64 200.754 579.96 200.754C562.28 200.754 550.77 214.264 550.77 234.114C550.77 256.804 563.95 268.984 579.96 268.984C598.81 268.984 609.15 253.304 609.15 234.114Z" fill="black"/>
<path d="M619.56 235.474C619.56 208.444 635.91 189.764 659.6 189.764C672.95 189.764 684.12 195.604 690.46 204.944V155.064H704.31V280.184H693.3L691.8 263.164C685.96 274.674 674.28 282.014 659.77 282.014C636.08 282.014 619.57 262.994 619.57 235.474H619.56ZM690.46 235.134C690.46 215.284 679.12 201.604 662.77 201.604C646.42 201.604 633.91 215.454 633.91 235.474C633.91 255.494 645.42 270.004 661.94 270.004C678.46 270.004 690.47 255.654 690.47 235.134H690.46Z" fill="black"/>
<path d="M700.91 238.444C700.91 208.244 720.43 191.904 742.78 191.904C767.14 191.904 782.82 208.254 783.32 236.614V240.454H714.76C715.59 259.304 726.6 272.154 744.45 272.154C756.79 272.154 765.8 265.984 769.47 254.474H782.98C778.98 272.654 764.63 284.164 744.44 284.164C718.25 284.164 700.9 264.984 700.9 238.454L700.91 238.444ZM768.81 228.944C766.31 213.434 756.97 203.924 742.79 203.924C728.61 203.924 718.43 213.094 715.6 228.944H768.82H768.81Z" fill="black"/>
<path d="M771.27 254.464H784.78C785.78 265.974 796.29 272.314 809.64 272.314C822.15 272.314 828.159 267.474 828.159 258.634C828.159 250.294 821.649 248.454 812.479 245.284L799.63 240.944C786.62 236.604 773.609 232.604 773.609 216.584C773.609 201.574 785.29 191.894 804.64 191.894C823.99 191.894 837.67 202.404 839.84 222.094H826.33C824.83 209.754 816.15 203.744 804.14 203.744C793.3 203.744 786.96 208.584 786.96 216.254C786.96 225.434 796.639 227.264 803.979 229.764L815.99 233.764C832.17 239.104 841.849 244.604 841.849 259.284C841.849 274.804 830.51 284.144 808.99 284.144C787.47 284.144 772.459 273.134 771.289 254.454L771.27 254.464Z" fill="black"/>
<path d="M431.83 1113.35C425.42 1116.61 420.14 1120.34 416.21 1123.22C412.48 1125.94 406.92 1130.1 402.65 1133.79C402.07 1134.64 401.48 1135.34 401.02 1135.89C399.7 1137.44 398.92 1137.91 398.3 1137.6C397.8 1137.29 397.95 1136.51 398.88 1135.5C399.81 1134.45 401.21 1133.67 401.99 1133.01C403.58 1130.48 406.03 1126.25 407.9 1123.61C409.96 1120.66 413.22 1116.93 416.72 1114.71C417.5 1114.2 418.27 1113.74 419.13 1113.43C418.66 1113.51 418.08 1113.66 417.61 1113.82C416.41 1114.21 414.11 1115.3 411.51 1117.01C408.83 1118.76 404.48 1122.84 401.53 1125.71C396.67 1130.41 394.42 1132.47 391.04 1135.03C388.86 1136.66 386.11 1138.14 384.01 1138.95C385.49 1140.74 388.01 1142.14 391.08 1142.21C396.56 1142.4 401.1 1140.07 403.98 1135.68C404.25 1135.25 404.41 1135.1 404.52 1135.21C404.71 1135.33 404.68 1135.56 404.33 1136.1C401.46 1140.53 396.95 1142.94 391.08 1142.82C387.7 1142.74 385.02 1141.19 383.39 1139.21C382.11 1139.68 379.23 1140.22 377.02 1140.3C373.33 1140.38 369.02 1139.06 369.25 1133.19C369.41 1129.15 371.89 1125.03 375.31 1121.88C378.92 1118.46 384.52 1115.94 388.79 1115.94C389.49 1115.94 390.15 1116.02 390.81 1116.21C396.09 1112.52 402.62 1110.69 409.54 1110.69C414.59 1110.69 417.89 1111.78 419.33 1112.21C420.92 1112.68 422.75 1113.41 423.33 1113.76C423.64 1113.95 423.87 1114.15 423.68 1114.34C423.56 1114.46 423.37 1114.26 423.02 1114.11C422.48 1113.88 421.47 1113.49 420.61 1113.26C420.14 1113.42 418.98 1114.27 417.97 1115.67C417 1116.99 414.78 1119.83 411.87 1123.52C409.89 1126.08 406.74 1129.19 404.61 1131.48C407.95 1128.61 413.04 1124.64 415.76 1122.66C420.93 1118.85 426.6 1115.24 431.49 1112.87C434.25 1111.55 437.9 1110.54 441.05 1110.54C443.46 1110.54 446.8 1111.05 447.62 1112.99C447.85 1113.53 447.62 1114.08 447.35 1114.16C447.16 1114.24 446.96 1113.77 446.53 1113.27C445.29 1111.75 442.72 1111.09 441.17 1111.09C440.43 1111.09 439.58 1111.13 438.84 1111.21C438.41 1111.33 437.91 1111.48 437.44 1111.72C433.83 1113.35 426.87 1120.54 422.95 1124.85C419.26 1128.97 416.73 1131.88 415.06 1133.98C413.16 1136.43 412.81 1136.97 412.11 1136.7C411.68 1136.54 411.22 1135.88 411.57 1134.6C412.19 1132.39 416.04 1127.37 420.82 1122.91C426.76 1117.39 431.97 1113.51 436.01 1111.8C434.46 1112.19 433.02 1112.77 431.85 1113.35H431.83ZM388.78 1116.5C384.93 1116.5 379.65 1120.11 376.81 1122.87C373.39 1126.13 370.13 1129.75 369.89 1133.36C369.58 1138.64 373.78 1139.77 376.84 1139.69C378.82 1139.65 381.39 1138.95 382.71 1138.33C382.17 1137.44 381.7 1136.12 381.54 1135.18C380.02 1135.65 378.63 1135.88 377.54 1135.88C376.3 1135.88 375.52 1135.72 374.59 1135.1C374.01 1134.67 373.66 1133.93 373.97 1133.82C374.13 1133.78 374.16 1134.09 374.47 1134.36C375.13 1135.02 376.26 1135.29 377.58 1135.29C378.67 1135.29 380.03 1135.02 381.43 1134.44C381.39 1134.13 381.35 1133.66 381.31 1132.96C381.15 1127.83 384.22 1121.19 390.25 1116.64C389.75 1116.52 389.28 1116.48 388.77 1116.48L388.78 1116.5ZM392.24 1117.43C386.18 1121.43 381.91 1128.7 382.02 1133.24C382.02 1133.51 382.02 1133.9 382.06 1134.21C384 1133.39 386.22 1131.96 388.35 1130.21C391.26 1127.88 393.98 1124.62 394.18 1121.51C394.34 1119.37 393.48 1118.09 392.24 1117.43ZM409.53 1111.99C403.74 1111.99 397.29 1114.28 392.75 1117.08C393.99 1117.86 394.93 1119.29 394.77 1121.47C394.58 1124.77 392.71 1128.04 389.06 1131.03C386.69 1132.93 384.32 1134.18 382.18 1134.95C382.3 1135.92 382.76 1137.16 383.31 1138.06C385.56 1137.05 387.54 1135.69 389.53 1134.17C392.75 1131.72 395.94 1128.93 399.83 1125.47C403.21 1122.48 406.55 1119.6 410.9 1116.65C412.96 1115.25 415.95 1113.85 417.27 1113.46C418.05 1113.23 418.75 1113.07 419.6 1112.96C417.35 1112.53 414.51 1111.99 409.54 1111.99H409.53Z" fill="black"/>
<path d="M419.79 1084.93C417.12 1084.89 414.14 1084.73 410.6 1084.33C408.53 1086.12 403.44 1092.96 399.66 1096.98C392.26 1104.82 382.04 1111.1 373.28 1110.59C370.1 1110.39 367.11 1108.72 367.51 1103.95C367.95 1098.9 372.16 1093.09 376.54 1089.23C379.32 1086.76 382.94 1084.3 385.73 1083.18C381.63 1083.3 375.11 1083.78 370.18 1085.53C364.29 1087.6 358.29 1092.49 357.77 1098.1C357.41 1102.08 359.44 1104.03 361.63 1104.15C362.07 1104.19 362.62 1104.11 362.62 1104.35C362.62 1104.67 362.18 1104.87 361.74 1104.87C359.03 1104.87 356.85 1102.44 357.13 1098.39C357.61 1091.35 363.89 1086.26 369.7 1084.07C376.03 1081.68 381.63 1081.36 389.07 1081.33C393.17 1079.74 396.31 1079.06 398.18 1079.18C400.57 1079.3 401.48 1080.45 401.68 1082.04C405.02 1082.36 408.68 1082.84 410.51 1083.07C411.82 1082.12 413.45 1081.2 414.37 1081C414.69 1080.96 415.25 1080.84 415.17 1081.12C415.13 1081.36 414.73 1081.36 414.61 1081.4C413.81 1081.64 412.66 1082.35 411.59 1083.23C414.57 1083.59 416.88 1083.79 420.38 1083.91C426.67 1084.11 432.83 1083.47 432.47 1079.45C432.39 1078.22 431.44 1077.74 430.32 1077.82C429.84 1077.86 429.68 1077.98 429.68 1077.86C429.68 1077.7 429.8 1077.54 430.24 1077.42C431.79 1077.1 433.78 1077.62 433.94 1079.41C434.26 1083.39 426.18 1085.02 419.78 1084.94L419.79 1084.93ZM401.65 1083.58C401.01 1087.64 396.72 1092.85 392.82 1096.27C387.81 1100.65 381.6 1103.95 378.26 1103.95C377.66 1103.95 376.55 1103.87 375.95 1102.88C375.75 1102.56 375.67 1101.97 375.91 1101.85C376.03 1101.77 375.95 1102.09 376.19 1102.53C376.43 1102.97 376.99 1103.44 377.98 1103.44C380.92 1103.56 386.85 1099.42 391.43 1095.32C395.29 1091.9 400.42 1086.69 401.1 1083.54C398.12 1083.34 394.85 1083.14 392.03 1083.14H388.97C385.51 1084.93 381.93 1087.44 378.63 1090.3C374.06 1094.24 368.45 1100.56 368.17 1104.42C367.81 1108.56 370.64 1109.91 373.42 1109.91C380.22 1109.91 388.3 1103.62 395.42 1096.58C399.12 1092.88 405.17 1087.23 409.34 1084.21C408.07 1084.09 404.8 1083.85 401.66 1083.57L401.65 1083.58ZM397.99 1079.68C396.2 1079.68 393.85 1080.44 391.59 1081.35C394.61 1081.39 398.23 1081.67 401.14 1081.95C400.9 1080.72 400.03 1079.68 398 1079.68H397.99Z" fill="black"/>
<path d="M403.17 1111.12L398.09 1093.97H400.84L404.79 1107.79L408.61 1093.97H410.94L414.76 1107.72L418.68 1093.97H421.43L416.35 1111.12H413.41L409.79 1098.05L406.17 1111.12H403.19H403.17Z" fill="black"/>
<path d="M420.17 1102.78C420.17 1097.05 423.92 1093.98 428.58 1093.98C434.05 1093.98 436.99 1097.93 436.99 1102.78C436.99 1108.7 433.4 1111.87 428.58 1111.87C423.08 1111.87 420.17 1107.95 420.17 1102.78ZM434.25 1102.78C434.25 1098.93 432.02 1096.31 428.59 1096.31C425.16 1096.31 422.93 1098.93 422.93 1102.78C422.93 1107.18 425.49 1109.54 428.59 1109.54C432.25 1109.54 434.25 1106.5 434.25 1102.78Z" fill="black"/>
<path d="M420.17 1127.95C420.17 1122.22 423.92 1119.15 428.58 1119.15C434.05 1119.15 436.99 1123.1 436.99 1127.95C436.99 1133.87 433.4 1137.04 428.58 1137.04C423.08 1137.04 420.17 1133.12 420.17 1127.95ZM434.25 1127.95C434.25 1124.1 432.02 1121.48 428.59 1121.48C425.16 1121.48 422.93 1124.1 422.93 1127.95C422.93 1132.35 425.49 1134.71 428.59 1134.71C432.25 1134.71 434.25 1131.67 434.25 1127.95Z" fill="black"/>
<path d="M436.27 1128.21C436.27 1122.97 439.44 1119.34 444.04 1119.34C446.63 1119.34 448.8 1120.47 450.03 1122.28V1112.61H452.72V1136.88H450.58L450.29 1133.58C449.16 1135.81 446.89 1137.24 444.08 1137.24C439.49 1137.24 436.28 1133.55 436.28 1128.21H436.27ZM450.02 1128.15C450.02 1124.3 447.82 1121.65 444.65 1121.65C441.48 1121.65 439.05 1124.34 439.05 1128.22C439.05 1132.1 441.28 1134.92 444.49 1134.92C447.7 1134.92 450.02 1132.14 450.02 1128.16V1128.15Z" fill="black"/>
<path d="M452.05 1128.79C452.05 1122.93 455.84 1119.76 460.17 1119.76C464.89 1119.76 467.94 1122.93 468.03 1128.43V1129.17H454.73C454.89 1132.83 457.03 1135.32 460.49 1135.32C462.88 1135.32 464.63 1134.12 465.34 1131.89H467.96C467.18 1135.42 464.4 1137.65 460.49 1137.65C455.41 1137.65 452.05 1133.93 452.05 1128.78V1128.79ZM465.21 1126.95C464.72 1123.94 462.91 1122.1 460.16 1122.1C457.41 1122.1 455.44 1123.88 454.89 1126.95H465.21Z" fill="black"/>
<path d="M465.5 1131.9H468.12C468.31 1134.13 470.35 1135.36 472.94 1135.36C475.37 1135.36 476.53 1134.42 476.53 1132.71C476.53 1131.09 475.27 1130.74 473.49 1130.12L471 1129.28C468.48 1128.44 465.95 1127.66 465.95 1124.56C465.95 1121.65 468.22 1119.77 471.97 1119.77C475.72 1119.77 478.38 1121.81 478.8 1125.63H476.18C475.89 1123.24 474.21 1122.07 471.88 1122.07C469.78 1122.07 468.55 1123.01 468.55 1124.5C468.55 1126.28 470.43 1126.64 471.85 1127.12L474.18 1127.9C477.32 1128.94 479.2 1130 479.2 1132.85C479.2 1135.86 477 1137.67 472.83 1137.67C468.66 1137.67 465.74 1135.53 465.52 1131.91L465.5 1131.9Z" fill="black"/>
<path d="M53.1597 1112.96C53.1597 1097.26 60.9397 1086.82 73.1797 1086.82C85.4197 1086.82 93.1297 1097.04 93.1297 1112.96C93.1297 1128.88 85.3497 1139.39 73.1797 1139.39C61.0097 1139.39 53.1597 1129.02 53.1597 1112.96ZM84.4197 1112.96C84.4197 1101.87 80.0297 1094.74 73.1897 1094.74C66.3497 1094.74 61.8797 1101.87 61.8797 1112.96C61.8797 1124.05 66.2697 1131.39 73.1897 1131.39C80.1097 1131.39 84.4197 1124.19 84.4197 1112.96Z" fill="black"/>
<path d="M109.689 1138.3V1100.78C107.309 1104.09 103.499 1105.82 98.3095 1105.82H97.7295V1097.54H98.3095C105.799 1097.54 109.759 1094.44 109.759 1088.61V1087.89H118.329V1138.29H109.689V1138.3Z" fill="black"/>
<path d="M732.75 1137.31V1099.79C730.37 1103.1 726.56 1104.83 721.37 1104.83H720.79V1096.55H721.37C728.86 1096.55 732.82 1093.45 732.82 1087.62V1086.9H741.39V1137.3H732.75V1137.31Z" fill="black"/>
<path d="M749.6 1111.96C749.6 1096.26 757.38 1085.82 769.62 1085.82C781.86 1085.82 789.57 1096.04 789.57 1111.96C789.57 1127.88 781.79 1138.39 769.62 1138.39C757.45 1138.39 749.6 1128.02 749.6 1111.96ZM780.85 1111.96C780.85 1100.87 776.46 1093.74 769.62 1093.74C762.78 1093.74 758.31 1100.87 758.31 1111.96C758.31 1123.05 762.7 1130.39 769.62 1130.39C776.54 1130.39 780.85 1123.19 780.85 1111.96Z" fill="black"/>
<path d="M751.58 351.894C751.57 352.984 750.44 353.694 748.63 353.814V354.624H752.53V355.594H743.53V354.624H747.41V353.814C745.6 353.684 744.46 352.984 744.46 351.894C744.46 350.674 745.86 349.924 748.02 349.924C750.18 349.924 751.57 350.664 751.58 351.894ZM751.42 359.594H750.21V357.334H744.52V356.374H751.42V359.594ZM745.72 351.894C745.71 352.514 746.57 352.884 748.01 352.884C749.45 352.884 750.31 352.514 750.31 351.894C750.31 351.234 749.45 350.904 748.01 350.904C746.57 350.904 745.71 351.244 745.72 351.894Z" fill="black"/>
<path d="M757.7 351.574H754.27V353.334H757.52V354.294H754.27V356.324C755.79 356.314 756.97 356.254 758.35 356.034L758.46 357.014C756.94 357.254 755.62 357.304 753.85 357.304H753.03V350.574H757.69V351.564L757.7 351.574ZM760.36 353.544H761.88V354.564H760.36V359.594H759.15V349.724H760.36V353.544Z" fill="black"/>
<path d="M763.29 353.004H765.62V350.534H766.83V357.284H762.09V350.534H763.29V353.004ZM765.62 356.284V353.944H763.29V356.284H765.62ZM769.47 353.484H770.99V354.514H769.47V359.604H768.26V349.734H769.47V353.494V353.484Z" fill="black"/>
<path d="M776.03 354.294H772.63V356.284C774.19 356.274 775.53 356.194 777.06 355.934L777.17 356.924C775.49 357.214 774.01 357.274 772.24 357.274H771.38V353.334H774.79V351.574H771.37V350.594H776.02V354.294H776.03ZM779.07 359.604H777.87V349.724H779.07V359.604Z" fill="black"/>
<path d="M787.86 359.474H781.01V356.154H783.84V355.204H779.95V354.234H788.95V355.204H785.04V356.154H787.86V359.474ZM788 351.774C787.99 352.944 786.62 353.644 784.44 353.634C782.28 353.644 780.88 352.944 780.88 351.774C780.88 350.604 782.28 349.874 784.44 349.874C786.6 349.874 787.99 350.584 788 351.774ZM782.14 351.774C782.13 352.374 782.99 352.704 784.43 352.704C785.87 352.704 786.73 352.374 786.73 351.774C786.73 351.174 785.87 350.814 784.43 350.814C782.99 350.814 782.13 351.154 782.14 351.774ZM782.21 358.494H786.68V357.114H782.21V358.494Z" fill="black"/>
<path d="M721.51 368.104C721.51 365.734 723.01 364.044 725.41 364.044C727.81 364.044 729.34 365.644 729.34 368.104C729.34 370.564 727.83 372.214 725.41 372.214C722.99 372.214 721.51 370.604 721.51 368.104ZM727.98 368.104C727.98 366.364 726.98 365.254 725.42 365.254C723.86 365.254 722.88 366.364 722.88 368.104C722.88 369.844 723.86 370.994 725.42 370.994C726.98 370.994 727.98 369.874 727.98 368.104Z" fill="black"/>
<path d="M729.68 368.104C729.68 365.734 731.18 364.044 733.62 364.044C735.66 364.044 737.05 365.234 737.39 367.234H736.01C735.76 366.004 734.86 365.254 733.62 365.254C732.04 365.254 731.06 366.364 731.06 368.104C731.06 369.844 732.04 370.994 733.62 370.994C734.88 370.994 735.77 370.264 736.01 369.024H737.39C737.03 371.064 735.67 372.214 733.62 372.214C731.22 372.214 729.68 370.554 729.68 368.104Z" fill="black"/>
<path d="M739.86 372.044V365.424H737.24V364.214H743.81V365.424H741.2V372.044H739.86Z" fill="black"/>
<path d="M742.61 372.044L745.81 364.214H747.15L750.36 372.044H748.97L748.18 370.114H744.79L744 372.044H742.61ZM745.27 368.924H747.7L746.49 365.944L745.27 368.924Z" fill="black"/>
<path d="M752.02 372.044L748.979 364.214H750.419L752.719 370.214L754.95 364.214H756.38L753.43 372.044H752.02Z" fill="black"/>
<path d="M754.99 372.044L758.19 364.214H759.53L762.74 372.044H761.35L760.56 370.114H757.17L756.38 372.044H754.99ZM757.65 368.924H760.08L758.87 365.944L757.65 368.924Z" fill="black"/>
<path d="M763.2 372.044V364.214H767.03C768.52 364.214 769.55 365.124 769.55 366.424C769.55 367.384 768.87 368.184 767.83 368.444C768.34 368.544 768.71 368.854 768.9 369.334L769.91 372.034H768.48L767.57 369.564C767.46 369.254 767.2 369.084 766.84 369.084H764.55V372.034H763.21L763.2 372.044ZM764.54 367.904H766.96C767.79 367.904 768.21 367.314 768.21 366.624C768.21 365.904 767.72 365.414 766.96 365.414H764.54V367.894V367.904Z" fill="black"/>
<path d="M770.41 372.044V364.214H771.75V372.044H770.41Z" fill="black"/>
<path d="M772.75 369.434V364.214H774.09V369.404C774.09 370.414 774.91 370.984 776 370.984C777.09 370.984 777.919 370.414 777.919 369.404V364.214H779.26V369.434C779.26 371.004 778.04 372.204 776 372.204C773.96 372.204 772.729 371.014 772.729 369.434H772.75Z" fill="black"/>
<path d="M780.27 372.044V364.214H781.93L784.38 370.434L786.82 364.214H788.479V372.044H787.14V366.534L784.969 372.044H783.799L781.63 366.544V372.044H780.289H780.27Z" fill="black"/>
<path d="M581.21 320.974H572.44V329.744H581.21V320.974Z" fill="#231F20"/>
<path d="M581.21 287.354H572.44V296.124H581.21V287.354Z" fill="#231F20"/>
<path d="M357.36 419.004V404.594H359.83V410.524H367.74V404.594H370.21V419.004H367.74V412.744H359.83V419.004H357.36Z" fill="black"/>
<path d="M371.03 419.004L376.92 404.594H379.39L385.3 419.004H382.75L381.29 415.444H375.05L373.59 419.004H371.04H371.03ZM375.93 413.264H380.4L378.18 407.784L375.94 413.264H375.93Z" fill="black"/>
<path d="M386.13 419.004V404.594H388.6V416.784H395.95V419.004H386.13Z" fill="black"/>
<path d="M397.1 419.004V404.594H407.31V406.814H399.57V410.784H406.76V413.004H399.57V418.994H397.1V419.004Z" fill="black"/>
<path d="M407.75 413.694V411.694H416.95V413.694H407.75Z" fill="black"/>
<path d="M418.18 419.004V404.594H425.02C427.64 404.594 429.47 406.074 429.47 408.234C429.47 409.884 428.28 411.154 426.5 411.594C428.5 411.904 429.77 413.264 429.77 415.094C429.77 417.404 427.88 419.004 425.14 419.004H418.18ZM420.63 410.604H424.93C426.17 410.604 427.01 409.784 427.01 408.624C427.01 407.554 426.23 406.794 425.12 406.794H420.63V410.604ZM420.63 416.784H425.26C426.5 416.784 427.26 415.894 427.26 414.744C427.26 413.594 426.35 412.744 425.04 412.744H420.63V416.784Z" fill="black"/>
<path d="M431.07 419.004V404.594H438.11C440.85 404.594 442.74 406.264 442.74 408.674C442.74 410.444 441.48 411.904 439.57 412.404C440.52 412.594 441.2 413.164 441.55 414.054L443.4 419.014H440.76L439.09 414.464C438.88 413.884 438.41 413.574 437.75 413.574H433.53V419.014H431.06L431.07 419.004ZM433.54 411.384H437.99C439.51 411.384 440.3 410.294 440.3 409.034C440.3 407.714 439.39 406.814 437.99 406.814H433.54V411.384Z" fill="black"/>
<path d="M444.35 419.004V404.594H454.44V406.814H446.8V410.524H453.72V412.684H446.8V416.784H454.62V419.004H444.35Z" fill="black"/>
<path d="M454.76 419.004L460.65 404.594H463.12L469.03 419.004H466.48L465.02 415.444H458.78L457.32 419.004H454.77H454.76ZM459.66 413.264H464.13L461.91 407.784L459.67 413.264H459.66Z" fill="black"/>
<path d="M469.87 419.004V404.594H472.34V411.654L478.89 404.594H482.02L476.38 410.504L482.43 419.004H479.4L474.66 412.294L472.33 414.724V419.004H469.86H469.87Z" fill="black"/>
<path d="M56.8698 420.464V408.274H52.0498V406.054H64.1398V408.274H59.3398V420.464H56.8698Z" fill="black"/>
<path d="M65.1999 420.464V406.054H72.2399C74.9799 406.054 76.8699 407.724 76.8699 410.134C76.8699 411.904 75.6099 413.364 73.6999 413.864C74.6499 414.054 75.3299 414.624 75.6799 415.514L77.5299 420.474H74.8899L73.2199 415.924C73.0099 415.344 72.5399 415.034 71.8799 415.034H67.6599V420.474H65.1899L65.1999 420.464ZM67.6699 412.854H72.1199C73.6399 412.854 74.4299 411.764 74.4299 410.504C74.4299 409.184 73.5199 408.284 72.1199 408.284H67.6699V412.854Z" fill="black"/>
<path d="M77.3496 420.464L83.2396 406.054H85.7096L91.6196 420.464H89.0696L87.6096 416.904H81.3696L79.9096 420.464H77.3596H77.3496ZM82.2496 414.724H86.7196L84.4996 409.244L82.2596 414.724H82.2496Z" fill="black"/>
<path d="M94.6596 420.464L89.0596 406.054H91.7196L95.9596 417.094L100.06 406.054H102.7L97.2596 420.464H94.6696H94.6596Z" fill="black"/>
<path d="M103.43 420.464V406.054H113.52V408.274H105.88V411.984H112.8V414.144H105.88V418.244H113.7V420.464H103.43Z" fill="black"/>
<path d="M114.97 420.464V406.054H117.44V418.244H124.79V420.464H114.97Z" fill="black"/>
<path d="M125.95 420.464V406.054H136.04V408.274H128.4V411.984H135.32V414.144H128.4V418.244H136.22V420.464H125.95Z" fill="black"/>
<path d="M137.49 420.464V406.054H144.53C147.27 406.054 149.16 407.724 149.16 410.134C149.16 411.904 147.9 413.364 145.99 413.864C146.94 414.054 147.62 414.624 147.97 415.514L149.82 420.474H147.18L145.51 415.924C145.3 415.344 144.83 415.034 144.17 415.034H139.95V420.474H137.48L137.49 420.464ZM139.96 412.854H144.41C145.93 412.854 146.72 411.764 146.72 410.504C146.72 409.184 145.81 408.284 144.41 408.284H139.96V412.854Z" fill="black"/>
<path d="M130.74 1104.36V1093.16H138.58V1094.89H132.64V1097.77H138.02V1099.45H132.64V1102.64H138.72V1104.37H130.73L130.74 1104.36Z" fill="#231F20"/>
<path d="M139.71 1104.36V1093.16H141.79L147.34 1101.6V1093.16H149.26V1104.36H147.18L141.63 1095.92V1104.36H139.71Z" fill="#231F20"/>
<path d="M150.21 1101.3V1099.72H152.11V1101.29C152.11 1102.22 152.93 1102.86 154.11 1102.86C155.29 1102.86 156.06 1102.15 156.06 1101.15V1093.16H157.98V1101.18C157.98 1103.2 156.41 1104.6 154.14 1104.6C151.87 1104.6 150.2 1103.24 150.2 1101.3H150.21Z" fill="#231F20"/>
<path d="M158.91 1098.73C158.91 1095.34 161.06 1092.92 164.5 1092.92C167.94 1092.92 170.12 1095.21 170.12 1098.73C170.12 1102.25 167.96 1104.6 164.5 1104.6C161.04 1104.6 158.91 1102.3 158.91 1098.73ZM168.16 1098.73C168.16 1096.23 166.74 1094.65 164.49 1094.65C162.24 1094.65 160.86 1096.23 160.86 1098.73C160.86 1101.23 162.27 1102.86 164.49 1102.86C166.71 1102.86 168.16 1101.26 168.16 1098.73Z" fill="#231F20"/>
<path d="M173.47 1104.36V1099.57L169.23 1093.15H171.45L174.44 1097.74L177.43 1093.15H179.65L175.38 1099.57V1104.36H173.46H173.47Z" fill="#231F20"/>
<path d="M182.88 1104.36V1093.16H188.19C190.22 1093.16 191.65 1094.31 191.65 1095.99C191.65 1097.27 190.72 1098.26 189.35 1098.6C190.9 1098.84 191.89 1099.9 191.89 1101.32C191.89 1103.11 190.42 1104.36 188.29 1104.36H182.88ZM184.78 1097.83H188.13C189.09 1097.83 189.75 1097.19 189.75 1096.29C189.75 1095.46 189.14 1094.87 188.28 1094.87H184.79V1097.83H184.78ZM184.78 1102.63H188.38C189.34 1102.63 189.93 1101.94 189.93 1101.05C189.93 1100.16 189.23 1099.5 188.2 1099.5H184.77V1102.64L184.78 1102.63Z" fill="#231F20"/>
<path d="M192.38 1098.73C192.38 1095.34 194.53 1092.92 197.97 1092.92C201.41 1092.92 203.59 1095.21 203.59 1098.73C203.59 1102.25 201.43 1104.6 197.97 1104.6C194.51 1104.6 192.38 1102.3 192.38 1098.73ZM201.63 1098.73C201.63 1096.23 200.21 1094.65 197.96 1094.65C195.71 1094.65 194.33 1096.23 194.33 1098.73C194.33 1101.23 195.74 1102.86 197.96 1102.86C200.18 1102.86 201.63 1101.26 201.63 1098.73Z" fill="#231F20"/>
<path d="M207.1 1104.36V1094.88H203.35V1093.15H212.75V1094.88H209.02V1104.36H207.1Z" fill="#231F20"/>
<path d="M213.58 1104.36V1093.16H215.5V1097.77H221.65V1093.16H223.57V1104.36H221.65V1099.49H215.5V1104.36H213.58Z" fill="#231F20"/>
<path d="M130.74 1123.56V1112.36H136.42C138.71 1112.36 140.1 1113.88 140.1 1115.88C140.1 1118.14 138.53 1119.51 136.42 1119.51H132.66V1123.56H130.74ZM132.66 1117.78H136.33C137.53 1117.78 138.15 1116.88 138.15 1115.88C138.15 1114.88 137.43 1114.09 136.33 1114.09H132.66V1117.79V1117.78Z" fill="#231F20"/>
<path d="M141.02 1123.56V1112.36H148.86V1114.09H142.92V1116.97H148.3V1118.65H142.92V1121.84H149V1123.57H141.01L141.02 1123.56Z" fill="#231F20"/>
<path d="M150 1123.56V1112.36H155.47C157.6 1112.36 159.07 1113.66 159.07 1115.53C159.07 1116.91 158.09 1118.04 156.61 1118.43C157.35 1118.57 157.87 1119.02 158.15 1119.71L159.59 1123.57H157.54L156.24 1120.03C156.08 1119.58 155.71 1119.34 155.2 1119.34H151.92V1123.57H150V1123.56ZM151.92 1117.64H155.38C156.56 1117.64 157.17 1116.79 157.17 1115.81C157.17 1114.79 156.47 1114.08 155.38 1114.08H151.92V1117.63V1117.64Z" fill="#231F20"/>
<path d="M160.32 1123.56V1112.36H168.26V1114.09H162.24V1117.18H167.83V1118.91H162.24V1123.57H160.32V1123.56Z" fill="#231F20"/>
<path d="M168.65 1117.93C168.65 1114.54 170.8 1112.12 174.24 1112.12C177.68 1112.12 179.86 1114.41 179.86 1117.93C179.86 1121.45 177.7 1123.8 174.24 1123.8C170.78 1123.8 168.65 1121.5 168.65 1117.93ZM177.91 1117.93C177.91 1115.43 176.49 1113.85 174.24 1113.85C171.99 1113.85 170.61 1115.43 170.61 1117.93C170.61 1120.43 172.02 1122.06 174.24 1122.06C176.46 1122.06 177.91 1120.46 177.91 1117.93Z" fill="#231F20"/>
<path d="M180.86 1123.56V1112.36H186.33C188.46 1112.36 189.93 1113.66 189.93 1115.53C189.93 1116.91 188.95 1118.04 187.47 1118.43C188.21 1118.57 188.73 1119.02 189.01 1119.71L190.45 1123.57H188.4L187.1 1120.03C186.94 1119.58 186.57 1119.34 186.06 1119.34H182.78V1123.57H180.86V1123.56ZM182.78 1117.64H186.24C187.42 1117.64 188.03 1116.79 188.03 1115.81C188.03 1114.79 187.33 1114.08 186.24 1114.08H182.78V1117.63V1117.64Z" fill="#231F20"/>
<path d="M191.18 1123.56V1112.36H193.55L197.06 1121.26L200.55 1112.36H202.92V1123.56H201V1115.67L197.89 1123.56H196.21L193.11 1115.68V1123.56H191.19H191.18Z" fill="#231F20"/>
<path d="M203.57 1123.56L208.15 1112.36H210.07L214.66 1123.56H212.68L211.54 1120.79H206.69L205.55 1123.56H203.57ZM207.38 1119.09H210.85L209.12 1114.83L207.38 1119.09Z" fill="#231F20"/>
<path d="M215.31 1123.56V1112.36H217.39L222.94 1120.8V1112.36H224.86V1123.56H222.78L217.23 1115.12V1123.56H215.31Z" fill="#231F20"/>
<path d="M225.89 1117.93C225.89 1114.54 228.04 1112.12 231.52 1112.12C234.43 1112.12 236.43 1113.82 236.91 1116.68H234.94C234.59 1114.92 233.29 1113.85 231.51 1113.85C229.25 1113.85 227.84 1115.43 227.84 1117.93C227.84 1120.43 229.25 1122.06 231.51 1122.06C233.32 1122.06 234.58 1121.02 234.94 1119.24H236.91C236.4 1122.15 234.45 1123.8 231.52 1123.8C228.08 1123.8 225.89 1121.43 225.89 1117.93Z" fill="#231F20"/>
<path d="M237.93 1123.56V1112.36H245.77V1114.09H239.83V1116.97H245.21V1118.65H239.83V1121.84H245.91V1123.57H237.92L237.93 1123.56Z" fill="#231F20"/>
<path d="M249.6 1123.56V1112.36H251.97L255.48 1121.26L258.97 1112.36H261.34V1123.56H259.42V1115.67L256.31 1123.56H254.63L251.53 1115.68V1123.56H249.61H249.6Z" fill="#231F20"/>
<path d="M262.35 1117.93C262.35 1114.54 264.5 1112.12 267.94 1112.12C271.38 1112.12 273.56 1114.41 273.56 1117.93C273.56 1121.45 271.4 1123.8 267.94 1123.8C264.48 1123.8 262.35 1121.5 262.35 1117.93ZM271.6 1117.93C271.6 1115.43 270.18 1113.85 267.93 1113.85C265.68 1113.85 264.3 1115.43 264.3 1117.93C264.3 1120.43 265.71 1122.06 267.93 1122.06C270.15 1122.06 271.6 1120.46 271.6 1117.93Z" fill="#231F20"/>
<path d="M274.56 1123.56V1112.36H278.59C281.92 1112.36 284.24 1114.63 284.24 1117.9C284.24 1121.17 281.92 1123.57 278.59 1123.57H274.56V1123.56ZM276.48 1121.83H278.72C280.8 1121.83 282.26 1120.21 282.26 1117.89C282.26 1115.7 280.8 1114.08 278.72 1114.08H276.48V1121.83Z" fill="#231F20"/>
<path d="M285.26 1123.56V1112.36H293.1V1114.09H287.16V1116.97H292.54V1118.65H287.16V1121.84H293.24V1123.57H285.25L285.26 1123.56Z" fill="#231F20"/>
<path d="M293.76 1120.1H295.73C295.91 1121.32 297.03 1122.08 298.82 1122.08C300.28 1122.08 301.05 1121.52 301.05 1120.58C301.05 1119.7 300.36 1119.35 299.27 1119.01L297.45 1118.47C296.14 1118.07 294.09 1117.49 294.09 1115.3C294.09 1113.46 295.61 1112.11 298.09 1112.11C300.8 1112.11 302.52 1113.57 302.67 1115.94H300.72C300.64 1114.68 299.71 1113.83 298.03 1113.83C296.8 1113.83 296 1114.34 296 1115.21C296 1116.19 296.98 1116.43 298.06 1116.78L299.76 1117.31C301.34 1117.81 303.01 1118.38 303.01 1120.49C303.01 1122.6 301.39 1123.8 298.83 1123.8C295.89 1123.8 293.92 1122.33 293.77 1120.1H293.76Z" fill="#231F20"/>
<path d="M538.8 1100.9H540.77C540.95 1102.12 542.07 1102.88 543.86 1102.88C545.32 1102.88 546.08 1102.32 546.08 1101.38C546.08 1100.5 545.39 1100.15 544.3 1099.81L542.47 1099.27C541.16 1098.87 539.11 1098.29 539.11 1096.1C539.11 1094.26 540.63 1092.91 543.11 1092.91C545.82 1092.91 547.54 1094.37 547.69 1096.74H545.74C545.66 1095.48 544.73 1094.63 543.05 1094.63C541.82 1094.63 541.02 1095.14 541.02 1096.01C541.02 1096.99 542 1097.23 543.08 1097.58L544.78 1098.11C546.36 1098.61 548.03 1099.18 548.03 1101.29C548.03 1103.4 546.41 1104.6 543.85 1104.6C540.9 1104.6 538.94 1103.13 538.79 1100.9H538.8Z" fill="#231F20"/>
<path d="M551.12 1104.36L547.95 1093.16H549.95L552.29 1101.56L554.58 1093.16H556.37L558.67 1101.58L561.01 1093.16H563.01L559.84 1104.36H557.74L555.47 1095.99L553.21 1104.36H551.11H551.12Z" fill="#231F20"/>
<path d="M563.58 1104.36V1093.16H565.5V1104.36H563.58Z" fill="#231F20"/>
<path d="M570.06 1104.36V1094.88H566.31V1093.15H575.71V1094.88H571.98V1104.36H570.06Z" fill="#231F20"/>
<path d="M575.5 1098.73C575.5 1095.34 577.65 1092.92 581.13 1092.92C584.04 1092.92 586.04 1094.62 586.52 1097.48H584.549C584.199 1095.72 582.9 1094.65 581.13 1094.65C578.87 1094.65 577.46 1096.23 577.46 1098.73C577.46 1101.23 578.87 1102.86 581.13 1102.86C582.94 1102.86 584.199 1101.82 584.549 1100.04H586.52C586.01 1102.95 584.06 1104.6 581.13 1104.6C577.69 1104.6 575.5 1102.23 575.5 1098.73Z" fill="#231F20"/>
<path d="M587.55 1104.36V1093.16H589.47V1097.77H595.62V1093.16H597.54V1104.36H595.62V1099.49H589.47V1104.36H587.55Z" fill="#231F20"/>
<path d="M599.05 1104.36V1093.16H600.97V1104.36H599.05Z" fill="#231F20"/>
<path d="M602.49 1104.36V1093.16H604.57L610.12 1101.6V1093.16H612.04V1104.36H609.96L604.41 1095.92V1104.36H602.49Z" fill="#231F20"/>
<path d="M613.07 1098.73C613.07 1095.34 615.21 1092.92 618.69 1092.92C621.6 1092.92 623.6 1094.65 624.08 1097.48H622.11C621.76 1095.72 620.46 1094.65 618.69 1094.65C616.45 1094.65 615.04 1096.22 615.04 1098.73C615.04 1101.24 616.46 1102.86 618.61 1102.86C620.35 1102.86 621.49 1101.72 621.49 1100.12H618.11V1098.5H621.94C623.38 1098.5 624.16 1099.22 624.16 1100.58V1104.36H622.46V1100.94H622.43C622.21 1103.18 620.73 1104.61 618.41 1104.61C615.27 1104.61 613.06 1102.31 613.06 1098.74L613.07 1098.73Z" fill="#231F20"/>
<path d="M627.6 1100.9H629.57C629.75 1102.12 630.87 1102.88 632.66 1102.88C634.12 1102.88 634.89 1102.32 634.89 1101.38C634.89 1100.5 634.2 1100.15 633.11 1099.81L631.29 1099.27C629.98 1098.87 627.93 1098.29 627.93 1096.1C627.93 1094.26 629.45 1092.91 631.93 1092.91C634.64 1092.91 636.36 1094.37 636.51 1096.74H634.56C634.48 1095.48 633.55 1094.63 631.87 1094.63C630.64 1094.63 629.84 1095.14 629.84 1096.01C629.84 1096.99 630.82 1097.23 631.91 1097.58L633.61 1098.11C635.19 1098.61 636.86 1099.18 636.86 1101.29C636.86 1103.4 635.24 1104.6 632.68 1104.6C629.74 1104.6 627.77 1103.13 627.62 1100.9H627.6Z" fill="#231F20"/>
<path d="M637.74 1104.36V1093.16H640.11L643.62 1102.06L647.11 1093.16H649.48V1104.36H647.56V1096.47L644.45 1104.36H642.77L639.67 1096.48V1104.36H637.75H637.74Z" fill="#231F20"/>
<path d="M650.49 1098.73C650.49 1095.34 652.63 1092.92 656.08 1092.92C659.53 1092.92 661.7 1095.21 661.7 1098.73C661.7 1102.25 659.54 1104.6 656.08 1104.6C652.62 1104.6 650.49 1102.3 650.49 1098.73ZM659.74 1098.73C659.74 1096.23 658.32 1094.65 656.07 1094.65C653.82 1094.65 652.44 1096.23 652.44 1098.73C652.44 1101.23 653.85 1102.86 656.07 1102.86C658.29 1102.86 659.74 1101.26 659.74 1098.73Z" fill="#231F20"/>
<path d="M662.189 1098.73C662.189 1095.34 664.329 1092.92 667.779 1092.92C671.229 1092.92 673.399 1095.21 673.399 1098.73C673.399 1102.25 671.239 1104.6 667.779 1104.6C664.319 1104.6 662.189 1102.3 662.189 1098.73ZM671.439 1098.73C671.439 1096.23 670.019 1094.65 667.769 1094.65C665.519 1094.65 664.139 1096.23 664.139 1098.73C664.139 1101.23 665.549 1102.86 667.769 1102.86C669.989 1102.86 671.439 1101.26 671.439 1098.73Z" fill="#231F20"/>
<path d="M676.91 1104.36V1094.88H673.16V1093.15H682.56V1094.88H678.83V1104.36H676.91Z" fill="#231F20"/>
<path d="M683.39 1104.36V1093.16H685.31V1097.77H691.46V1093.16H693.38V1104.36H691.46V1099.49H685.31V1104.36H683.39Z" fill="#231F20"/>
<path d="M694.89 1104.36V1093.16H696.81V1102.64H702.52V1104.37H694.89V1104.36Z" fill="#231F20"/>
<path d="M704.57 1104.36V1099.57L700.33 1093.15H702.55L705.54 1097.74L708.53 1093.15H710.76L706.49 1099.57V1104.36H704.57Z" fill="#231F20"/>
<path d="M558.859 1123.56L563.439 1112.36H565.359L569.949 1123.56H567.969L566.829 1120.79H561.979L560.839 1123.56H558.859ZM562.669 1119.09H566.139L564.409 1114.83L562.669 1119.09Z" fill="#231F20"/>
<path d="M569.85 1120.1H571.82C572 1121.32 573.12 1122.08 574.91 1122.08C576.37 1122.08 577.13 1121.52 577.13 1120.58C577.13 1119.7 576.44 1119.35 575.35 1119.01L573.52 1118.47C572.21 1118.07 570.16 1117.49 570.16 1115.3C570.16 1113.46 571.68 1112.11 574.16 1112.11C576.87 1112.11 578.59 1113.57 578.74 1115.94H576.79C576.71 1114.68 575.78 1113.83 574.1 1113.83C572.87 1113.83 572.07 1114.34 572.07 1115.21C572.07 1116.19 573.05 1116.43 574.13 1116.78L575.83 1117.31C577.41 1117.81 579.08 1118.38 579.08 1120.49C579.08 1122.6 577.46 1123.8 574.9 1123.8C571.95 1123.8 569.99 1122.33 569.84 1120.1H569.85Z" fill="#231F20"/>
<path d="M582.68 1123.56V1112.36H590.62V1114.09H584.6V1117.18H590.19V1118.91H584.6V1123.57H582.68V1123.56Z" fill="#231F20"/>
<path d="M591.53 1123.56V1112.36H593.45V1121.84H599.159V1123.57H591.52L591.53 1123.56Z" fill="#231F20"/>
<path d="M600.06 1123.56V1112.36H601.98V1123.56H600.06Z" fill="#231F20"/>
<path d="M603.5 1123.56V1112.36H609.18C611.47 1112.36 612.859 1113.88 612.859 1115.88C612.859 1118.14 611.29 1119.51 609.18 1119.51H605.419V1123.56H603.5ZM605.419 1117.78H609.09C610.29 1117.78 610.909 1116.88 610.909 1115.88C610.909 1114.88 610.19 1114.09 609.09 1114.09H605.419V1117.79V1117.78Z" fill="#231F20"/>
<path d="M613.79 1123.56V1112.36H619.47C621.76 1112.36 623.15 1113.88 623.15 1115.88C623.15 1118.14 621.58 1119.51 619.47 1119.51H615.71V1123.56H613.79ZM615.71 1117.78H619.38C620.58 1117.78 621.21 1116.88 621.21 1115.88C621.21 1114.88 620.49 1114.09 619.38 1114.09H615.71V1117.79V1117.78Z" fill="#231F20"/>
<path d="M624.08 1123.56V1112.36H626V1123.56H624.08Z" fill="#231F20"/>
<path d="M627.52 1123.56V1112.36H629.599L635.15 1120.8V1112.36H637.07V1123.56H634.99L629.44 1115.12V1123.56H627.52Z" fill="#231F20"/>
<path d="M638.09 1117.93C638.09 1114.54 640.23 1112.12 643.71 1112.12C646.62 1112.12 648.62 1113.85 649.1 1116.68H647.13C646.78 1114.92 645.48 1113.85 643.7 1113.85C641.46 1113.85 640.05 1115.42 640.05 1117.93C640.05 1120.44 641.47 1122.06 643.62 1122.06C645.37 1122.06 646.5 1120.92 646.5 1119.32H643.12V1117.7H646.95C648.39 1117.7 649.18 1118.42 649.18 1119.78V1123.56H647.48V1120.14H647.45C647.23 1122.38 645.75 1123.81 643.43 1123.81C640.29 1123.81 638.08 1121.51 638.08 1117.94L638.09 1117.93Z" fill="#231F20"/>
<path d="M652.219 1123.56L656.799 1112.36H658.719L663.309 1123.56H661.319L660.179 1120.79H655.329L654.189 1123.56H652.209H652.219ZM656.029 1119.09H659.499L657.769 1114.83L656.019 1119.09H656.029Z" fill="#231F20"/>
<path d="M666.649 1123.56V1112.36H669.019L672.529 1121.26L676.019 1112.36H678.389V1123.56H676.469V1115.67L673.359 1123.56H671.679L668.569 1115.68V1123.56H666.649Z" fill="#231F20"/>
<path d="M679.399 1117.93C679.399 1114.54 681.539 1112.12 684.989 1112.12C688.439 1112.12 690.609 1114.41 690.609 1117.93C690.609 1121.45 688.449 1123.8 684.989 1123.8C681.529 1123.8 679.399 1121.5 679.399 1117.93ZM688.659 1117.93C688.659 1115.43 687.239 1113.85 684.989 1113.85C682.739 1113.85 681.359 1115.43 681.359 1117.93C681.359 1120.43 682.769 1122.06 684.989 1122.06C687.209 1122.06 688.659 1120.46 688.659 1117.93Z" fill="#231F20"/>
<path d="M691.609 1123.56V1112.36H695.639C698.969 1112.36 701.289 1114.63 701.289 1117.9C701.289 1121.17 698.969 1123.57 695.639 1123.57H691.609V1123.56ZM693.529 1121.83H695.769C697.849 1121.83 699.309 1120.21 699.309 1117.89C699.309 1115.7 697.849 1114.08 695.769 1114.08H693.529V1121.83Z" fill="#231F20"/>
<path d="M702.32 1123.56V1112.36H710.16V1114.09H704.22V1116.97H709.6V1118.65H704.22V1121.84H710.3V1123.57H702.31L702.32 1123.56Z" fill="#231F20"/>
<path d="M424.35 102.604H425.78C425.91 103.494 426.72 104.054 428.03 104.054C429.09 104.054 429.65 103.644 429.65 102.954C429.65 102.314 429.15 102.054 428.36 101.814L427.03 101.414C426.07 101.124 424.58 100.704 424.58 99.1036C424.58 97.7636 425.69 96.7836 427.49 96.7836C429.46 96.7836 430.72 97.8436 430.82 99.5736H429.4C429.34 98.6536 428.67 98.0336 427.44 98.0336C426.54 98.0336 425.96 98.4036 425.96 99.0336C425.96 99.7436 426.67 99.9236 427.46 100.174L428.7 100.554C429.85 100.914 431.07 101.334 431.07 102.874C431.07 104.414 429.89 105.284 428.03 105.284C425.89 105.284 424.45 104.214 424.35 102.594V102.604Z" fill="black"/>
<path d="M433.32 105.114L431.01 96.9536H432.47L434.17 103.074L435.84 96.9536H437.15L438.83 103.084L440.53 96.9536H441.99L439.68 105.114H438.15L436.49 99.0136L434.85 105.114H433.32Z" fill="black"/>
<path d="M442.399 105.114V96.9536H443.799V105.114H442.399Z" fill="black"/>
<path d="M447.12 105.114V98.2136H444.39V96.9536H451.23V98.2136H448.51V105.114H447.11H447.12Z" fill="black"/>
<path d="M451.08 101.014C451.08 98.5436 452.64 96.7836 455.18 96.7836C457.3 96.7836 458.76 98.0236 459.11 100.104H457.68C457.42 98.8236 456.48 98.0436 455.19 98.0436C453.55 98.0436 452.52 99.1936 452.52 101.014C452.52 102.834 453.55 104.024 455.19 104.024C456.51 104.024 457.43 103.264 457.68 101.974H459.11C458.74 104.094 457.31 105.294 455.18 105.294C452.67 105.294 451.08 103.564 451.08 101.014Z" fill="black"/>
<path d="M459.859 105.114V96.9536H461.259V100.314H465.739V96.9536H467.139V105.114H465.739V101.574H461.259V105.114H459.859Z" fill="black"/>
<path d="M468.24 105.114V96.9536H469.64V105.114H468.24Z" fill="black"/>
<path d="M470.74 105.114V96.9536H472.26L476.31 103.094V96.9536H477.71V105.114H476.19L472.14 98.9736V105.114H470.74Z" fill="black"/>
<path d="M478.45 101.014C478.45 98.5436 480.01 96.7836 482.54 96.7836C484.66 96.7836 486.12 98.0436 486.47 100.104H485.04C484.78 98.8236 483.84 98.0436 482.55 98.0436C480.92 98.0436 479.89 99.1836 479.89 101.014C479.89 102.844 480.93 104.024 482.49 104.024C483.76 104.024 484.59 103.194 484.59 102.034H482.13V100.854H484.92C485.97 100.854 486.54 101.374 486.54 102.374V105.124H485.3V102.624H485.28C485.12 104.254 484.04 105.294 482.35 105.294C480.06 105.294 478.46 103.614 478.46 101.014H478.45Z" fill="black"/>
<path d="M424.7 120.414V112.254H428.57C430.05 112.254 431.09 113.094 431.09 114.314C431.09 115.244 430.41 115.974 429.41 116.214C430.54 116.384 431.26 117.154 431.26 118.194C431.26 119.504 430.19 120.414 428.64 120.414H424.7ZM426.09 115.654H428.53C429.23 115.654 429.71 115.184 429.71 114.534C429.71 113.924 429.27 113.494 428.64 113.494H426.1V115.654H426.09ZM426.09 119.154H428.71C429.41 119.154 429.84 118.654 429.84 118.004C429.84 117.354 429.33 116.874 428.58 116.874H426.09V119.164V119.154Z" fill="black"/>
<path d="M431.989 120.414V112.254H437.699V113.514H433.369V115.614H437.289V116.834H433.369V119.154H437.799V120.414H431.979H431.989Z" fill="black"/>
<path d="M440.75 120.414V113.514H438.02V112.254H444.86V113.514H442.14V120.414H440.74H440.75Z" fill="black"/>
<path d="M447.07 120.414L444.76 112.254H446.22L447.92 118.374L449.59 112.254H450.9L452.58 118.384L454.28 112.254H455.74L453.43 120.414H451.9L450.24 114.314L448.6 120.414H447.07Z" fill="black"/>
<path d="M456.15 120.414V112.254H461.86V113.514H457.53V115.614H461.45V116.834H457.53V119.154H461.96V120.414H456.14H456.15Z" fill="black"/>
<path d="M462.69 120.414V112.254H468.4V113.514H464.07V115.614H467.99V116.834H464.07V119.154H468.5V120.414H462.68H462.69Z" fill="black"/>
<path d="M469.229 120.414V112.254H470.749L474.799 118.394V112.254H476.199V120.414H474.679L470.629 114.274V120.414H469.229Z" fill="black"/>
<path d="M424.7 135.714V127.554H426.43L428.98 134.034L431.52 127.554H433.25V135.714H431.85V129.964L429.59 135.714H428.37L426.11 129.974V135.714H424.71H424.7Z" fill="black"/>
<path d="M433.99 131.604C433.99 129.134 435.55 127.374 438.06 127.374C440.57 127.374 442.15 129.044 442.15 131.604C442.15 134.164 440.58 135.884 438.06 135.884C435.54 135.884 433.99 134.204 433.99 131.604ZM440.73 131.604C440.73 129.784 439.69 128.634 438.06 128.634C436.43 128.634 435.41 129.784 435.41 131.604C435.41 133.424 436.44 134.614 438.06 134.614C439.68 134.614 440.73 133.444 440.73 131.604Z" fill="black"/>
<path d="M442.879 135.714V127.554H445.819C448.239 127.554 449.939 129.214 449.939 131.584C449.939 133.954 448.249 135.714 445.819 135.714H442.879ZM444.279 134.454H445.909C447.429 134.454 448.489 133.274 448.489 131.584C448.489 129.984 447.429 128.814 445.909 128.814H444.279V134.454Z" fill="black"/>
<path d="M450.67 135.714V127.554H456.38V128.814H452.05V130.914H455.97V132.134H452.05V134.454H456.48V135.714H450.66H450.67Z" fill="black"/>
<path d="M456.859 133.194H458.289C458.419 134.084 459.229 134.644 460.539 134.644C461.599 134.644 462.159 134.234 462.159 133.544C462.159 132.904 461.659 132.644 460.869 132.404L459.539 132.004C458.579 131.714 457.089 131.294 457.089 129.694C457.089 128.354 458.199 127.374 459.999 127.374C461.969 127.374 463.229 128.434 463.329 130.164H461.909C461.849 129.244 461.179 128.624 459.949 128.624C459.049 128.624 458.469 128.994 458.469 129.624C458.469 130.334 459.179 130.514 459.969 130.764L461.209 131.144C462.359 131.504 463.579 131.924 463.579 133.464C463.579 135.004 462.399 135.874 460.539 135.874C458.399 135.874 456.959 134.804 456.859 133.184V133.194Z" fill="black"/>
<path d="M128.77 1134.56H349.14" stroke="black" stroke-width="0.75" stroke-miterlimit="10"/>
<path d="M492.63 1134.56H710.92" stroke="black" stroke-width="0.75" stroke-miterlimit="10"/>
<path d="M668.51 419.284L664.43 404.874H667L670.01 415.684L672.95 404.874H675.26L678.23 415.704L681.24 404.874H683.81L679.73 419.284H677.03L674.11 408.514L671.21 419.284H668.51Z" fill="black"/>
<path d="M684.54 419.284V404.874H694.63V407.094H686.99V410.804H693.91V412.964H686.99V417.064H694.81V419.284H684.54Z" fill="black"/>
<path d="M695.43 412.034C695.43 407.664 698.19 404.564 702.68 404.564C706.43 404.564 709 406.744 709.62 410.434H707.09C706.64 408.174 704.97 406.794 702.68 406.794C699.78 406.794 697.96 408.834 697.96 412.044C697.96 415.254 699.77 417.354 702.68 417.354C705.01 417.354 706.63 416.014 707.09 413.734H709.62C708.96 417.484 706.45 419.604 702.68 419.604C698.25 419.604 695.43 416.554 695.43 412.044V412.034Z" fill="black"/>
<path d="M709.02 419.284L714.909 404.874H717.38L723.289 419.284H720.74L719.28 415.724H713.039L711.58 419.284H709.03H709.02ZM713.919 413.534H718.39L716.169 408.054L713.93 413.534H713.919Z" fill="black"/>
<path d="M724.13 419.284V404.874H726.81L733.95 415.724V404.874H736.42V419.284H733.74L726.59 408.434V419.284H724.12H724.13Z" fill="black"/>
<path d="M738.39 419.284V404.874H743.58C747.86 404.874 750.85 407.794 750.85 411.994C750.85 416.194 747.86 419.284 743.58 419.284H738.39ZM740.86 417.064H743.74C746.42 417.064 748.29 414.984 748.29 411.994C748.29 409.174 746.42 407.094 743.74 407.094H740.86V417.064Z" fill="black"/>
<path d="M752.16 419.284V404.874H762.25V407.094H754.61V410.804H761.53V412.964H754.61V417.064H762.43V419.284H752.16Z" fill="black"/>
<path d="M763.71 419.284V404.874H770.75C773.49 404.874 775.38 406.544 775.38 408.954C775.38 410.724 774.12 412.184 772.21 412.684C773.16 412.874 773.84 413.444 774.19 414.334L776.04 419.294H773.4L771.73 414.744C771.52 414.164 771.05 413.854 770.39 413.854H766.17V419.294H763.7L763.71 419.284ZM766.18 411.664H770.63C772.15 411.664 772.94 410.574 772.94 409.314C772.94 407.994 772.03 407.094 770.63 407.094H766.18V411.664Z" fill="black"/>
<path d="M776.37 414.834H778.9C779.13 416.404 780.57 417.384 782.87 417.384C784.74 417.384 785.73 416.664 785.73 415.444C785.73 414.314 784.84 413.854 783.44 413.424L781.09 412.724C779.4 412.214 776.77 411.464 776.77 408.644C776.77 406.274 778.73 404.544 781.92 404.544C785.4 404.544 787.62 406.414 787.81 409.464H785.3C785.2 407.834 784 406.744 781.84 406.744C780.25 406.744 779.22 407.404 779.22 408.514C779.22 409.774 780.48 410.084 781.88 410.534L784.06 411.214C786.1 411.854 788.24 412.594 788.24 415.314C788.24 418.034 786.16 419.574 782.87 419.574C779.08 419.574 776.55 417.684 776.36 414.814L776.37 414.834Z" fill="black"/>
<path d="M51.1998 336.544V329.254C51.1998 316.254 60.8798 310.684 68.6598 306.214C74.5898 302.804 79.7098 299.854 79.7098 294.654C79.7098 290.504 76.9798 287.924 72.5798 287.924C67.4198 287.924 64.1298 291.444 64.0098 297.104L63.9698 299.064H49.7798L49.9298 296.924C50.8498 283.774 59.7998 275.284 72.7498 275.284C84.9598 275.284 93.4898 283.124 93.4898 294.344C93.4898 305.564 84.9598 310.804 77.4298 315.214C72.7698 317.944 68.6398 320.374 66.8598 323.894H92.4498V336.544H51.2098H51.1998Z" fill="black"/>
<path d="M72.7399 277.284C83.9499 277.284 91.4799 284.174 91.4799 294.344C91.4799 312.844 66.4099 312.844 64.0899 325.894H90.4399V334.544H53.1999V329.254C53.1999 307.794 81.7099 308.834 81.7099 294.654C81.7099 289.444 78.1099 285.924 72.5799 285.924C66.7299 285.924 62.1699 289.844 62.0099 297.054H51.9199C52.7999 284.404 61.4499 277.274 72.7399 277.274M72.7399 273.284C66.0499 273.284 60.1599 275.424 55.7299 279.474C51.1199 283.684 48.4299 289.664 47.9299 296.784L47.6299 301.064H65.9199L66.0099 297.154C66.1099 292.564 68.5099 289.934 72.5799 289.934C75.8399 289.934 77.7099 291.654 77.7099 294.664C77.7099 298.514 73.8899 300.904 67.6599 304.484C59.8699 308.964 49.1999 315.104 49.1999 329.254V338.544H94.4399V321.894H70.9999C72.9199 320.174 75.5699 318.624 78.4299 316.944C86.0299 312.484 95.4799 306.944 95.4799 294.344C95.4799 281.744 86.1299 273.284 72.7399 273.284Z" fill="white"/>
<path d="M122.15 337.754C106.19 337.754 95.8799 325.434 95.8799 306.364C95.8799 287.294 106.25 275.294 122.31 275.294C134.76 275.294 143.83 283.204 144.88 294.974L145.07 297.154H133.95C140.44 300.524 144.48 307.314 144.48 315.894C144.48 328.764 135.29 337.754 122.14 337.754H122.15ZM121.75 306.754C117.09 306.754 112.38 309.914 112.38 315.964C112.38 322.014 117.2 325.094 121.67 325.094C126.14 325.094 130.72 322.244 130.72 315.884C130.72 309.524 126.21 306.754 121.75 306.754ZM122.15 287.934C115.48 287.934 110.9 292.524 109.37 300.454C113.07 296.914 118.27 294.824 123.99 294.824C126.54 294.824 128.93 295.214 131.11 295.934L131.05 295.344C130.59 290.904 127.02 287.934 122.15 287.934Z" fill="black"/>
<path d="M122.31 277.284C133.68 277.284 141.93 284.414 142.89 295.144H133.04C132.48 289.694 127.99 285.934 122.15 285.934C112.86 285.934 107.33 293.624 106.85 304.994V307.714C109.25 301.544 115.58 296.824 123.99 296.824C134.8 296.824 142.49 304.594 142.49 315.884C142.49 327.174 134.16 335.744 122.15 335.744C107.01 335.744 97.8799 323.654 97.8799 306.354C97.8799 289.054 107.41 277.284 122.31 277.284ZM121.67 327.104C127.2 327.104 132.72 323.424 132.72 315.894C132.72 308.364 127.27 304.764 121.75 304.764C116.23 304.764 110.38 308.604 110.38 315.974C110.38 323.344 115.99 327.104 121.67 327.104ZM122.31 273.284C105.04 273.284 93.8799 286.264 93.8799 306.354C93.8799 326.444 105.24 339.744 122.15 339.744C129.01 339.744 135.21 337.374 139.62 333.054C144.05 328.724 146.49 322.624 146.49 315.874C146.49 309.124 144.05 303.234 139.93 299.134H147.26L146.87 294.774C145.72 281.914 135.85 273.274 122.3 273.274L122.31 273.284ZM113.27 295.304C116.06 290.454 120.44 289.944 122.15 289.944C124.97 289.944 127.22 291.194 128.34 293.214C126.94 292.964 125.49 292.834 123.99 292.834C120.12 292.834 116.46 293.714 113.27 295.304ZM121.67 323.104C118.31 323.104 114.38 321.234 114.38 315.974C114.38 311.024 118.2 308.764 121.75 308.764C122.91 308.764 128.72 309.104 128.72 315.894C128.72 321.214 124.92 323.104 121.67 323.104Z" fill="white"/>
<path d="M154.82 337.594C150.29 337.594 146.73 334.004 146.73 329.424C146.73 324.844 150.28 321.334 154.82 321.334C159.36 321.334 162.99 324.884 162.99 329.424C162.99 333.964 159.48 337.594 154.82 337.594Z" fill="black"/>
<path d="M154.82 323.334C158.34 323.334 160.99 325.974 160.99 329.424C160.99 332.874 158.35 335.594 154.82 335.594C151.29 335.594 148.73 332.954 148.73 329.424C148.73 325.894 151.37 323.334 154.82 323.334ZM154.82 319.334C149.16 319.334 144.73 323.764 144.73 329.424C144.73 335.084 149.16 339.594 154.82 339.594C160.48 339.594 164.99 335.124 164.99 329.424C164.99 323.724 160.52 319.334 154.82 319.334Z" fill="white"/>
<path d="M187.09 337.754C172.58 337.754 162.83 325.134 162.83 306.364C162.83 287.594 172.35 275.294 187.09 275.294C201.83 275.294 211.27 287.784 211.27 306.364C211.27 324.944 201.55 337.754 187.09 337.754ZM187.09 288.094C180.67 288.094 176.52 295.264 176.52 306.354C176.52 317.444 180.67 324.854 187.09 324.854C193.51 324.854 197.58 317.594 197.58 306.354C197.58 295.114 193.46 288.094 187.09 288.094Z" fill="black"/>
<path d="M187.09 277.284C200.38 277.284 209.27 288.654 209.27 306.354C209.27 324.054 200.62 335.744 187.09 335.744C173.56 335.744 164.83 324.214 164.83 306.354C164.83 288.494 173.48 277.284 187.09 277.284ZM187.09 326.864C194.7 326.864 199.58 318.854 199.58 306.364C199.58 293.874 194.69 286.104 187.09 286.104C179.49 286.104 174.52 294.034 174.52 306.364C174.52 318.694 179.41 326.864 187.09 326.864ZM187.09 273.284C171.38 273.284 160.83 286.574 160.83 306.354C160.83 326.134 171.38 339.744 187.09 339.744C202.8 339.744 213.27 326.324 213.27 306.354C213.27 286.384 202.75 273.284 187.09 273.284ZM187.09 322.864C183.13 322.864 178.52 318.544 178.52 306.364C178.52 298.864 180.77 290.104 187.09 290.104C192.25 290.104 195.58 296.484 195.58 306.364C195.58 316.244 192.25 322.864 187.09 322.864Z" fill="white"/>
<path d="M225.69 336.544V297.544C222.88 299.464 219.32 300.424 215.04 300.424H212.4V287.214H215.04C225.77 287.214 225.77 281.244 225.77 279.284V276.484H239.3V336.544H225.69Z" fill="black"/>
<path d="M237.3 278.494V334.554H227.69V292.834C225.05 296.514 220.8 298.444 215.04 298.444H214.4V289.234H215.04C223.37 289.234 227.77 285.794 227.77 279.304V278.504H237.3M241.3 274.494H223.77V279.294C223.77 281.214 223.77 285.224 215.04 285.224H210.4V302.434H215.04C218.54 302.434 221.38 301.814 223.69 300.864V338.554H241.3V274.494Z" fill="white"/>
<path d="M252.27 337.594C247.74 337.594 244.18 334.004 244.18 329.424C244.18 324.844 247.73 321.334 252.27 321.334C256.81 321.334 260.44 324.884 260.44 329.424C260.44 333.964 256.93 337.594 252.27 337.594Z" fill="black"/>
<path d="M252.27 323.334C255.79 323.334 258.44 325.974 258.44 329.424C258.44 332.874 255.8 335.594 252.27 335.594C248.74 335.594 246.18 332.954 246.18 329.424C246.18 325.894 248.82 323.334 252.27 323.334ZM252.27 319.334C246.61 319.334 242.18 323.764 242.18 329.424C242.18 335.084 246.61 339.594 252.27 339.594C257.93 339.594 262.44 335.124 262.44 329.424C262.44 323.724 257.97 319.334 252.27 319.334Z" fill="white"/>
<path d="M267.01 336.544V297.544C264.2 299.464 260.64 300.424 256.36 300.424H253.72V287.214H256.36C267.09 287.214 267.09 281.244 267.09 279.284V276.484H280.62V336.544H267.01Z" fill="black"/>
<path d="M278.62 278.494V334.554H269.01V292.834C266.37 296.514 262.12 298.444 256.36 298.444H255.72V289.234H256.36C264.69 289.234 269.09 285.794 269.09 279.304V278.504H278.62M282.62 274.494H265.09V279.294C265.09 281.214 265.09 285.224 256.36 285.224H251.72V302.434H256.36C259.86 302.434 262.7 301.814 265.01 300.864V338.554H282.62V274.494Z" fill="white"/>
<path d="M310.01 337.754C295.5 337.754 285.75 325.134 285.75 306.364C285.75 287.594 295.27 275.294 310.01 275.294C324.75 275.294 334.19 287.784 334.19 306.364C334.19 324.944 324.47 337.754 310.01 337.754ZM310.01 288.094C303.59 288.094 299.44 295.264 299.44 306.354C299.44 317.444 303.59 324.854 310.01 324.854C316.43 324.854 320.5 317.594 320.5 306.354C320.5 295.114 316.38 288.094 310.01 288.094Z" fill="black"/>
<path d="M310.01 277.284C323.3 277.284 332.19 288.654 332.19 306.354C332.19 324.054 323.54 335.744 310.01 335.744C296.48 335.744 287.75 324.214 287.75 306.354C287.75 288.494 296.4 277.284 310.01 277.284ZM310.01 326.864C317.62 326.864 322.5 318.854 322.5 306.364C322.5 293.874 317.61 286.104 310.01 286.104C302.41 286.104 297.44 294.034 297.44 306.364C297.44 318.694 302.33 326.864 310.01 326.864ZM310.01 273.284C294.3 273.284 283.75 286.574 283.75 306.354C283.75 326.134 294.3 339.744 310.01 339.744C325.72 339.744 336.19 326.324 336.19 306.354C336.19 286.384 325.67 273.284 310.01 273.284ZM310.01 322.864C306.05 322.864 301.44 318.544 301.44 306.364C301.44 298.864 303.69 290.104 310.01 290.104C315.17 290.104 318.5 296.484 318.5 306.364C318.5 316.244 315.17 322.864 310.01 322.864Z" fill="white"/>
<path d="M588.93 339.884V279.824H619.36C631.38 279.824 639.78 287.894 639.78 299.444C639.78 310.994 631.38 319.624 619.36 319.624H602.54V339.884H588.93ZM618.88 306.974C624.14 306.974 626.01 302.914 626.01 299.444C626.01 295.214 623.21 292.474 618.88 292.474H602.54V306.974H618.88Z" fill="black"/>
<path d="M619.36 281.824C630.81 281.824 637.78 289.434 637.78 299.444C637.78 310.734 629.93 317.624 619.36 317.624H600.54V337.884H590.93V281.824H619.36ZM600.54 308.974H618.88C624.89 308.974 628.01 304.494 628.01 299.444C628.01 294.394 624.41 290.474 618.88 290.474H600.54V308.974ZM619.36 277.824H586.93V341.884H604.54V321.624H619.36C632.56 321.624 641.78 312.504 641.78 299.444C641.78 286.384 632.56 277.824 619.36 277.824ZM604.54 294.474H618.88C622.14 294.474 624.01 296.284 624.01 299.444C624.01 300.744 623.64 304.974 618.88 304.974H604.54V294.474Z" fill="white"/>
<path d="M644.42 339.884V279.824H658.03V327.234H686.62V339.884H644.42Z" fill="black"/>
<path d="M656.03 281.824V329.234H684.62V337.884H646.42V281.824H656.03ZM660.03 277.824H642.42V341.884H688.62V325.234H660.03V277.824Z" fill="white"/>
<path d="M732.93 339.884L727.24 326.034H705.66L699.97 339.884H685.72L710.26 279.824H722.55L747.17 339.884H732.92H732.93ZM722.17 313.544L716.48 299.534L710.74 313.544H722.17Z" fill="black"/>
<path d="M721.21 281.824L744.19 337.884H734.26L728.57 324.034H704.299L698.609 337.884H688.68L711.58 281.824H721.19M707.76 315.544H725.14L716.49 294.244L707.76 315.544ZM723.9 277.824H708.919L707.9 280.314L685 336.374L682.75 341.884H701.32L702.34 339.404L707.01 328.034H725.909L730.58 339.404L731.599 341.884H750.18L747.919 336.364L724.94 280.304L723.919 277.824H723.9ZM713.719 311.544L716.469 304.834L719.19 311.544H713.719Z" fill="white"/>
<path d="M755.089 339.884V314.544L732.149 279.824H748.079L761.969 301.144L775.859 279.824H791.809L768.699 314.544V339.884H755.089Z" fill="black"/>
<path d="M788.079 281.824L766.699 313.934V337.884H757.089V313.934L735.869 281.824H746.999L761.979 304.804L776.959 281.824H788.089M795.549 277.824H774.779L773.599 279.644L761.979 297.484L750.359 279.644L749.179 277.824H728.439L732.539 284.034L753.099 315.144V341.884H770.709V315.144L791.419 284.034L795.559 277.814L795.549 277.824Z" fill="white"/>
<path d="M341.33 317.024C341.33 314.664 342.82 312.984 345.25 312.984C347.27 312.984 348.67 314.164 349 316.154H347.63C347.39 314.934 346.48 314.184 345.25 314.184C343.68 314.184 342.7 315.284 342.7 317.024C342.7 318.764 343.68 319.894 345.25 319.894C346.51 319.894 347.39 319.174 347.63 317.934H349C348.64 319.954 347.29 321.104 345.25 321.104C342.86 321.104 341.33 319.454 341.33 317.024Z" fill="black"/>
<path d="M349.7 320.944V313.154H351.03V316.354H355.3V313.154H356.63V320.944H355.3V317.564H351.03V320.944H349.7Z" fill="black"/>
<path d="M357.09 320.944L360.27 313.154H361.6L364.79 320.944H363.41L362.62 319.024H359.25L358.46 320.944H357.08H357.09ZM359.74 317.834H362.15L360.95 314.874L359.74 317.834Z" fill="black"/>
<path d="M365.25 320.944V313.154H366.7L370.56 319.014V313.154H371.89V320.944H370.44L366.579 315.084V320.944H365.25Z" fill="black"/>
<path d="M372.6 317.024C372.6 314.664 374.09 312.984 376.5 312.984C378.52 312.984 379.92 314.184 380.25 316.154H378.88C378.64 314.934 377.73 314.184 376.5 314.184C374.94 314.184 373.96 315.274 373.96 317.024C373.96 318.774 374.95 319.894 376.44 319.894C377.65 319.894 378.44 319.104 378.44 317.994H376.09V316.874H378.75C379.75 316.874 380.3 317.374 380.3 318.324V320.944H379.12V318.564H379.1C378.94 320.124 377.92 321.114 376.31 321.114C374.13 321.114 372.59 319.514 372.59 317.034L372.6 317.024Z" fill="black"/>
<path d="M381.169 320.944V313.154H386.619V314.354H382.489V316.354H386.229V317.524H382.489V319.734H386.719V320.934H381.169V320.944Z" fill="black"/>
<path d="M391.39 320.944V314.354H388.79V313.154H395.32V314.354H392.73V320.944H391.4H391.39Z" fill="black"/>
<path d="M395.89 320.944V313.154H397.22V316.354H401.49V313.154H402.82V320.944H401.49V317.564H397.22V320.944H395.89Z" fill="black"/>
<path d="M403.89 320.944V313.154H409.34V314.354H405.21V316.354H408.95V317.524H405.21V319.734H409.44V320.934H403.89V320.944Z" fill="black"/>
<path d="M412 320.944V313.154H413.65L416.09 319.334L418.51 313.154H420.16V320.944H418.829V315.464L416.67 320.944H415.5L413.34 315.474V320.944H412.01H412Z" fill="black"/>
<path d="M420.859 317.024C420.859 314.664 422.349 312.984 424.739 312.984C427.129 312.984 428.639 314.574 428.639 317.024C428.639 319.474 427.139 321.104 424.739 321.104C422.339 321.104 420.859 319.504 420.859 317.024ZM427.289 317.024C427.289 315.284 426.299 314.184 424.739 314.184C423.179 314.184 422.209 315.284 422.209 317.024C422.209 318.764 423.189 319.894 424.739 319.894C426.289 319.894 427.289 318.784 427.289 317.024Z" fill="black"/>
<path d="M429.35 320.944V313.154H432.15C434.46 313.154 436.08 314.734 436.08 317.004C436.08 319.274 434.47 320.944 432.15 320.944H429.35ZM430.68 319.744H432.24C433.69 319.744 434.7 318.624 434.7 317.004C434.7 315.484 433.69 314.354 432.24 314.354H430.68V319.734V319.744Z" fill="black"/>
<path d="M436.79 320.944V313.154H442.24V314.354H438.11V316.354H441.85V317.524H438.11V319.734H442.34V320.934H436.79V320.944Z" fill="black"/>
<path d="M442.689 318.534H444.059C444.179 319.384 444.959 319.914 446.209 319.914C447.219 319.914 447.759 319.524 447.759 318.864C447.759 318.254 447.279 318.004 446.519 317.774L445.249 317.394C444.339 317.114 442.909 316.714 442.909 315.194C442.909 313.914 443.969 312.984 445.689 312.984C447.569 312.984 448.769 313.994 448.869 315.644H447.509C447.449 314.764 446.809 314.174 445.639 314.174C444.779 314.174 444.229 314.534 444.229 315.134C444.229 315.814 444.909 315.984 445.669 316.224L446.849 316.594C447.949 316.934 449.109 317.344 449.109 318.804C449.109 320.264 447.989 321.104 446.209 321.104C444.159 321.104 442.799 320.084 442.699 318.534H442.689Z" fill="black"/>
<path d="M451.609 320.944V313.154H457.129V314.354H452.949V316.504H456.829V317.704H452.949V320.944H451.619H451.609Z" fill="black"/>
<path d="M457.76 320.944V313.154H459.09V319.744H463.06V320.944H457.75H457.76Z" fill="black"/>
<path d="M463.29 318.354V313.164H464.62V318.324C464.62 319.324 465.43 319.894 466.52 319.894C467.61 319.894 468.43 319.324 468.43 318.324V313.164H469.76V318.354C469.76 319.914 468.55 321.114 466.52 321.114C464.49 321.114 463.27 319.934 463.27 318.354H463.29Z" fill="black"/>
<path d="M470.78 320.944V313.154H476.23V314.354H472.1V316.354H475.84V317.524H472.1V319.734H476.33V320.934H470.78V320.944Z" fill="black"/>
<path d="M477.01 320.944V313.154H478.46L482.32 319.014V313.154H483.65V320.944H482.2L478.34 315.084V320.944H477.01Z" fill="black"/>
<path d="M486.84 320.944V314.354H484.24V313.154H490.77V314.354H488.18V320.944H486.85H486.84Z" fill="black"/>
<path d="M491.34 320.944V313.154H492.67V319.744H496.64V320.944H491.33H491.34Z" fill="black"/>
<path d="M498.07 320.944V317.614L495.12 313.154H496.67L498.75 316.344L500.83 313.154H502.38L499.41 317.614V320.944H498.08H498.07Z" fill="black"/>
<path d="M341.68 334.284V326.494H345.37C346.78 326.494 347.77 327.294 347.77 328.464C347.77 329.354 347.12 330.044 346.17 330.274C347.25 330.444 347.94 331.174 347.94 332.164C347.94 333.414 346.92 334.274 345.44 334.274H341.68V334.284ZM343.01 329.754H345.33C346 329.754 346.45 329.314 346.45 328.684C346.45 328.104 346.03 327.694 345.43 327.694H343.01V329.754ZM343.01 333.084H345.51C346.18 333.084 346.59 332.604 346.59 331.984C346.59 331.364 346.1 330.904 345.39 330.904H343.01V333.084Z" fill="black"/>
<path d="M348.649 334.284V326.494H354.099V327.694H349.969V329.694H353.709V330.864H349.969V333.074H354.199V334.274H348.649V334.284Z" fill="black"/>
<path d="M356.999 334.284V327.694H354.399V326.494H360.929V327.694H358.339V334.284H357.009H356.999Z" fill="black"/>
<path d="M363.04 334.284L360.84 326.494H362.23L363.85 332.334L365.44 326.494H366.69L368.29 332.344L369.91 326.494H371.3L369.1 334.284H367.64L366.06 328.464L364.49 334.284H363.03H363.04Z" fill="black"/>
<path d="M371.7 334.284V326.494H377.15V327.694H373.02V329.694H376.76V330.864H373.02V333.074H377.25V334.274H371.7V334.284Z" fill="black"/>
<path d="M377.939 334.284V326.494H383.389V327.694H379.259V329.694H382.999V330.864H379.259V333.074H383.489V334.274H377.939V334.284Z" fill="black"/>
<path d="M384.18 334.284V326.494H385.63L389.49 332.354V326.494H390.82V334.284H389.37L385.51 328.424V334.284H384.18Z" fill="black"/>
<path d="M395.87 334.284V327.694H393.27V326.494H399.8V327.694H397.21V334.284H395.88H395.87Z" fill="black"/>
<path d="M401.909 334.284L399.709 326.494H401.099L402.719 332.334L404.309 326.494H405.559L407.159 332.344L408.779 326.494H410.169L407.969 334.284H406.509L404.929 328.464L403.359 334.284H401.899H401.909Z" fill="black"/>
<path d="M410.08 330.374C410.08 328.014 411.57 326.334 413.96 326.334C416.35 326.334 417.86 327.924 417.86 330.374C417.86 332.824 416.36 334.454 413.96 334.454C411.56 334.454 410.08 332.854 410.08 330.374ZM416.51 330.374C416.51 328.634 415.52 327.534 413.96 327.534C412.4 327.534 411.43 328.634 411.43 330.374C411.43 332.114 412.41 333.244 413.96 333.244C415.51 333.244 416.51 332.134 416.51 330.374Z" fill="black"/>
<path d="M420.439 334.284V326.494H422.089L424.529 332.674L426.949 326.494H428.599V334.284H427.269V328.804L425.109 334.284H423.939L421.779 328.814V334.284H420.449H420.439Z" fill="black"/>
<path d="M429.3 330.374C429.3 328.014 430.79 326.334 433.18 326.334C435.57 326.334 437.08 327.924 437.08 330.374C437.08 332.824 435.58 334.454 433.18 334.454C430.78 334.454 429.3 332.854 429.3 330.374ZM435.73 330.374C435.73 328.634 434.74 327.534 433.18 327.534C431.62 327.534 430.65 328.634 430.65 330.374C430.65 332.114 431.63 333.244 433.18 333.244C434.73 333.244 435.73 332.134 435.73 330.374Z" fill="black"/>
<path d="M437.79 334.284V326.494H440.59C442.9 326.494 444.52 328.074 444.52 330.344C444.52 332.614 442.91 334.284 440.59 334.284H437.79ZM439.12 333.084H440.68C442.13 333.084 443.14 331.964 443.14 330.344C443.14 328.824 442.13 327.694 440.68 327.694H439.12V333.074V333.084Z" fill="black"/>
<path d="M445.229 334.284V326.494H450.679V327.694H446.549V329.694H450.289V330.864H446.549V333.074H450.779V334.274H445.229V334.284Z" fill="black"/>
<path d="M451.129 331.884H452.499C452.619 332.734 453.399 333.264 454.649 333.264C455.659 333.264 456.199 332.874 456.199 332.214C456.199 331.604 455.719 331.354 454.959 331.124L453.689 330.744C452.779 330.464 451.349 330.064 451.349 328.544C451.349 327.264 452.409 326.334 454.129 326.334C456.009 326.334 457.209 327.344 457.309 328.994H455.949C455.889 328.114 455.249 327.524 454.079 327.524C453.219 327.524 452.669 327.884 452.669 328.484C452.669 329.164 453.349 329.334 454.099 329.574L455.279 329.944C456.379 330.284 457.539 330.694 457.539 332.154C457.539 333.614 456.419 334.454 454.639 334.454C452.589 334.454 451.219 333.434 451.129 331.884Z" fill="black"/>
<path d="M457.79 329.064C457.79 328.584 458.16 328.214 458.64 328.214C459.12 328.214 459.5 328.584 459.5 329.064C459.5 329.544 459.13 329.924 458.64 329.924C458.15 329.924 457.79 329.554 457.79 329.064ZM457.79 333.574C457.79 333.094 458.16 332.724 458.64 332.724C459.12 332.724 459.5 333.094 459.5 333.574C459.5 334.054 459.13 334.434 458.64 334.434C458.15 334.434 457.79 334.064 457.79 333.574Z" fill="black"/>
<path d="M462.04 334.284V326.494H465.99C467.58 326.494 468.55 327.554 468.55 328.944C468.55 330.514 467.46 331.464 465.99 331.464H463.38V334.274H462.05L462.04 334.284ZM463.38 330.274H465.93C466.76 330.274 467.2 329.654 467.2 328.954C467.2 328.254 466.7 327.704 465.93 327.704H463.38V330.274Z" fill="black"/>
<path d="M469.19 334.284V326.494H470.52V333.084H474.49V334.284H469.18H469.19Z" fill="black"/>
<path d="M474.51 334.284L477.69 326.494H479.02L482.21 334.284H480.829L480.04 332.364H476.67L475.88 334.284H474.5H474.51ZM477.16 331.184H479.57L478.37 328.224L477.16 331.184Z" fill="black"/>
<path d="M483.45 334.284V330.954L480.5 326.494H482.049L484.13 329.684L486.21 326.494H487.76L484.79 330.954V334.284H483.46H483.45Z" fill="black"/>
<path d="M53.6494 356.554H55.0194C55.1394 357.404 55.9194 357.934 57.1694 357.934C58.1794 357.934 58.7194 357.544 58.7194 356.884C58.7194 356.274 58.2394 356.024 57.4894 355.794L56.2194 355.414C55.3094 355.134 53.8794 354.734 53.8794 353.214C53.8794 351.934 54.9394 351.004 56.6594 351.004C58.5394 351.004 59.7394 352.014 59.8394 353.664H58.4794C58.4194 352.784 57.7794 352.194 56.6094 352.194C55.7494 352.194 55.1994 352.554 55.1994 353.154C55.1994 353.834 55.8794 354.004 56.6394 354.244L57.8194 354.614C58.9194 354.954 60.0794 355.364 60.0794 356.824C60.0794 358.284 58.9594 359.124 57.1794 359.124C55.1294 359.124 53.7694 358.104 53.6694 356.554H53.6494Z" fill="black"/>
<path d="M60.0896 358.964L63.2696 351.174H64.5996L67.7896 358.964H66.4096L65.6196 357.044H62.2496L61.4596 358.964H60.0796H60.0896ZM62.7296 355.854H65.1396L63.9396 352.894L62.7296 355.854Z" fill="black"/>
<path d="M69.2099 358.964V352.374H66.6099V351.174H73.1399V352.374H70.5499V358.964H69.2199H69.2099Z" fill="black"/>
<path d="M73.6396 356.364V351.174H74.9696V356.334C74.9696 357.334 75.7796 357.904 76.8696 357.904C77.9596 357.904 78.7796 357.334 78.7796 356.334V351.174H80.1096V356.364C80.1096 357.924 78.8996 359.124 76.8696 359.124C74.8396 359.124 73.6196 357.944 73.6196 356.364H73.6396Z" fill="black"/>
<path d="M81.1294 358.964V351.174H84.9294C86.4094 351.174 87.4294 352.074 87.4294 353.374C87.4294 354.334 86.7494 355.124 85.7194 355.384C86.2294 355.484 86.5994 355.794 86.7894 356.274L87.7894 358.954H86.3694L85.4694 356.494C85.3594 356.184 85.0994 356.014 84.7494 356.014H82.4694V358.954H81.1394L81.1294 358.964ZM82.4594 354.844H84.8594C85.6794 354.844 86.1094 354.254 86.1094 353.574C86.1094 352.864 85.6194 352.374 84.8594 352.374H82.4594V354.844Z" fill="black"/>
<path d="M88.2998 358.964V351.174H91.0998C93.4098 351.174 95.0298 352.754 95.0298 355.024C95.0298 357.294 93.4198 358.964 91.0998 358.964H88.2998ZM89.6398 357.754H91.1998C92.6498 357.754 93.6598 356.634 93.6598 355.014C93.6598 353.494 92.6498 352.364 91.1998 352.364H89.6398V357.744V357.754Z" fill="black"/>
<path d="M94.7097 358.964L97.8897 351.174H99.2197L102.41 358.964H101.03L100.24 357.044H96.8697L96.0797 358.964H94.6997H94.7097ZM97.3497 355.854H99.7597L98.5597 352.894L97.3497 355.854Z" fill="black"/>
<path d="M103.65 358.964V355.634L100.7 351.174H102.25L104.33 354.364L106.41 351.174H107.96L104.99 355.634V358.964H103.66H103.65Z" fill="black"/>
<path d="M53.6196 368.394C53.6196 366.034 55.1096 364.354 57.4996 364.354C59.8896 364.354 61.3996 365.944 61.3996 368.394C61.3996 370.844 59.8996 372.474 57.4996 372.474C55.0996 372.474 53.6196 370.874 53.6196 368.394ZM60.0496 368.394C60.0496 366.654 59.0596 365.554 57.4996 365.554C55.9396 365.554 54.9696 366.654 54.9696 368.394C54.9696 370.134 55.9496 371.264 57.4996 371.264C59.0496 371.264 60.0496 370.154 60.0496 368.394Z" fill="black"/>
<path d="M62.1099 372.304V364.514H66.0599C67.6499 364.514 68.6199 365.574 68.6199 366.964C68.6199 368.534 67.5299 369.484 66.0599 369.484H63.4499V372.294H62.1199L62.1099 372.304ZM63.4399 368.294H65.9899C66.8199 368.294 67.2599 367.674 67.2599 366.974C67.2599 366.274 66.7599 365.724 65.9899 365.724H63.4399V368.294Z" fill="black"/>
<path d="M69.2598 372.304V364.514H74.7098V365.714H70.5798V367.714H74.3198V368.884H70.5798V371.094H74.8098V372.294H69.2598V372.304Z" fill="black"/>
<path d="M75.4995 372.304V364.514H76.9495L80.8095 370.374V364.514H82.1395V372.304H80.6895L76.8295 366.444V372.304H75.4995Z" fill="black"/>
<path d="M84.4597 372.304L87.6397 364.514H88.9697L92.1597 372.304H90.7797L89.9897 370.384H86.6197L85.8297 372.304H84.4497H84.4597ZM87.1097 369.204H89.5197L88.3197 366.244L87.1097 369.204Z" fill="black"/>
<path d="M93.5795 372.304V365.714H90.9795V364.514H97.5095V365.714H94.9195V372.304H93.5895H93.5795Z" fill="black"/>
<path d="M101.249 372.304V366.504C100.879 367.014 100.289 367.284 99.4894 367.284H99.3994V366.004H99.4894C100.649 366.004 101.259 365.524 101.259 364.624V364.514H102.579V372.304H101.249Z" fill="black"/>
<path d="M103.229 370.174C103.229 369.274 103.849 368.584 104.869 368.254C104.049 367.894 103.589 367.224 103.589 366.464C103.589 365.334 104.609 364.364 106.349 364.364C108.089 364.364 109.089 365.324 109.089 366.464C109.089 367.214 108.629 367.884 107.819 368.254C108.829 368.574 109.439 369.274 109.439 370.174C109.439 371.424 108.329 372.474 106.349 372.474C104.369 372.474 103.239 371.444 103.239 370.174H103.229ZM108.049 370.014C108.049 369.334 107.399 368.764 106.339 368.764C105.279 368.764 104.619 369.334 104.619 370.014C104.619 370.694 105.279 371.264 106.339 371.264C107.399 371.264 108.049 370.704 108.049 370.014ZM107.759 366.644C107.759 365.974 107.179 365.514 106.339 365.514C105.499 365.514 104.919 365.984 104.919 366.644C104.919 367.304 105.499 367.814 106.339 367.814C107.179 367.814 107.759 367.334 107.759 366.644Z" fill="black"/>
<path d="M109.689 367.074C109.689 366.594 110.059 366.224 110.539 366.224C111.019 366.224 111.399 366.594 111.399 367.074C111.399 367.554 111.029 367.934 110.539 367.934C110.049 367.934 109.689 367.564 109.689 367.074ZM109.689 371.594C109.689 371.114 110.059 370.744 110.539 370.744C111.019 370.744 111.399 371.114 111.399 371.594C111.399 372.074 111.029 372.454 110.539 372.454C110.049 372.454 109.689 372.084 109.689 371.594Z" fill="black"/>
<path d="M111.709 368.394C111.709 365.974 112.909 364.354 114.799 364.354C116.689 364.354 117.879 365.934 117.879 368.394C117.879 370.854 116.679 372.474 114.799 372.474C112.919 372.474 111.709 370.874 111.709 368.394ZM116.539 368.394C116.539 366.684 115.859 365.584 114.799 365.584C113.739 365.584 113.049 366.684 113.049 368.394C113.049 370.104 113.729 371.244 114.799 371.244C115.869 371.244 116.539 370.134 116.539 368.394Z" fill="black"/>
<path d="M118.24 368.394C118.24 365.974 119.44 364.354 121.33 364.354C123.22 364.354 124.41 365.934 124.41 368.394C124.41 370.854 123.21 372.474 121.33 372.474C119.45 372.474 118.24 370.874 118.24 368.394ZM123.07 368.394C123.07 366.684 122.39 365.584 121.33 365.584C120.27 365.584 119.58 366.684 119.58 368.394C119.58 370.104 120.26 371.244 121.33 371.244C122.4 371.244 123.07 370.134 123.07 368.394Z" fill="black"/>
<path d="M719.68 485.874H125.92V954.834H719.68V485.874Z" stroke="black" stroke-width="2" stroke-miterlimit="10"/>
<path d="M377 955.554C376.76 954.124 377.37 954.794 378.12 954.544C380.59 953.724 382.82 953.104 383.72 950.284C384.92 950.404 383.29 952.684 385.15 952.204L385.64 943.574C386.48 943.464 386.09 944.664 386.11 945.244C386.17 946.754 386.06 948.294 386.11 949.804L387.08 945.274C387.8 935.484 386.39 925.694 386.08 916.024C384.48 865.514 385.22 814.634 384.2 763.984C383.77 742.664 382.04 716.914 383.68 695.894C384 691.814 384.86 691.564 384.18 687.244C383.82 684.924 390.65 663.454 392.38 660.964C392.94 660.164 394.02 659.984 394.46 659.214C395.93 656.704 397.41 651.054 398.68 648.094C399.16 646.984 400.44 645.854 400.74 644.864C401.23 643.254 400.33 642.304 400.77 640.634C402.01 635.934 407.26 629.774 407.94 624.714C408.21 622.724 407.15 620.824 407.87 618.454C409.5 613.064 414.32 603.294 416.81 597.664C417.29 596.564 419.31 591.974 419.86 591.574C420.67 590.984 421.99 591.984 422.94 591.574C426.83 580.824 432.39 570.294 436.27 559.584C437.45 556.314 436.48 552.514 440.87 554.254C441.44 554.484 440.9 555.584 442.18 555.194L443.14 553.024C443.25 551.504 441.98 552.634 441.46 553.254L439.76 551.524L440.3 548.804L438.83 547.754L439.81 546.334C437.51 543.654 439.06 541.554 438.83 538.414C440.72 537.844 440.1 539.954 441.7 539.854L442.9 534.594L445.21 535.484L446.46 533.924L447.45 533.624C447.45 534.294 448.54 536.144 449.15 535.064C450.31 532.994 450.74 530.664 450.34 528.344C451.79 528.074 451.21 529.804 451.74 531.014C451.96 531.524 452.63 532.474 453.21 532.654L453.7 527.864C455.08 527.884 454.75 531.254 455.85 530.734C457.16 530.114 456.21 527.364 456.82 527.374C459.3 528.144 457.35 531.414 457.54 533.134C458.99 533.374 458.3 532.764 458.51 531.964C459.19 529.324 460.08 524.504 460.9 530.734L461.38 528.814H462.58L463.03 529.734L464.25 529.304V531.224L466.16 530.264L466.65 532.184L469.03 531.714L469.07 533.094L470.97 533.134V535.534L472.64 534.584L473.36 537.454H475.29V540.804C476.22 541.004 476.09 537.884 477.2 538.884C477.31 538.984 477.71 541.184 477.93 541.754C478.22 542.534 478.93 543.034 479.11 543.934C479.77 547.394 478.37 553.454 475.29 555.424L475.52 556.164C478.87 558.014 475.33 558.224 474.07 558.994C473.19 559.534 472.85 560.704 472.24 561.244C470.86 562.464 469.35 563.684 467.85 564.764L467.61 563.324H466.18C466.72 567.934 461.72 570.744 461.38 564.764L460.9 567.164C458.65 567.684 457.35 565.804 455.59 565.044C453.83 564.284 446.21 561.244 445.21 560.324C444.63 559.784 444.84 558.164 443.17 558.054C442.63 563.774 451.88 568.484 456.57 569.344C457.9 569.584 462.14 569.244 462.35 570.294C459.73 574.344 457.77 578.794 455.34 582.934C452.45 587.874 449.28 592.464 446.5 597.494C445.96 598.464 444 598.764 446.02 600.974C444.95 602.024 443.2 601.584 443.64 603.594C444.91 603.854 446.24 604.234 446.05 605.754C444.5 606.734 442.84 610.154 442.66 611.994C442.29 615.764 443.38 626.674 444.25 630.574C444.91 633.524 445.84 634.524 447.09 636.844C449 640.404 449.71 655.064 449.9 659.934C450.32 670.694 449.55 681.564 449.88 692.324L470.75 691.844C476.3 693.274 483.6 697.544 486.05 702.914C487.32 705.704 487.06 707.434 488.71 710.424C491.96 716.294 489.43 714.324 486.59 716.794C486.34 717.014 482.74 721.624 482.6 721.914C481.76 723.774 478.96 734.564 478.7 736.724C478.12 741.644 479.27 746.944 479.15 751.524C479.1 753.324 477.72 754.774 477.68 756.574C476.38 756.974 476.97 755.774 476.15 755.454C472.32 753.964 466.74 754.784 462.82 755.614L463.61 757.474C466.62 757.674 469.64 755.864 472.59 756.114C473.86 756.224 476.59 756.754 476.58 758.294C476.11 763.994 476.13 769.804 476.23 775.534C476.42 785.664 476.53 796.154 477.17 806.254C477.25 807.504 476.06 808.314 477.5 809.274C478.36 809.854 480.02 809.564 480.1 810.984C480.55 819.804 482 828.564 482.48 837.374C482.74 842.114 482.81 847.014 482.98 851.734C483.41 863.314 483.48 874.904 483.44 886.524L481.59 886.584C480.75 887.114 480.98 896.554 481.02 898.284C481.27 909.974 480.98 923.204 482.01 934.704C482.13 935.994 483.28 939.074 483.26 939.494C483.24 939.914 482.47 940.584 482.45 941.864C482.36 946.414 482.28 951.094 482.97 955.564H464.27C464.28 954.504 464.74 953.544 464.77 952.474C465.24 938.574 464.04 924.594 463.77 910.754C463.71 907.574 464.26 888.704 463.36 887.664C462.46 886.624 460.5 887.224 460.42 883.894C460.24 876.854 460.46 869.374 460.42 862.324C460.3 845.174 460.26 828.064 461.88 810.994C461.99 809.724 463.26 809.644 464.21 809.244L463.25 759.284L460.91 757.684L459.86 737.254L456.14 727.544C455.62 727.244 455.04 727.344 454.48 727.284C453.29 727.164 450.42 726.954 449.98 728.124L449.46 753.974C448.69 755.914 446.22 755.334 444.58 755.814L443.63 806.644C444.18 856.314 442.79 906.024 443.65 955.554H429.74C429.46 950.074 429.98 944.554 430.04 939.094C430.61 884.864 430.94 830.324 431.68 776.004C431.75 770.664 432.12 763.884 431.68 758.704C431.33 754.584 429.6 756.374 427.31 754.444C424.85 752.364 426.41 750.214 426.42 747.714C426.56 726.014 427.72 701.084 426.4 679.594C426.27 677.544 425.37 675.614 425.38 673.854C425.39 671.254 426.98 666.494 427.3 663.744C427.94 658.254 427.44 652.524 428.28 647.044C428.62 645.384 422.29 642.294 421.39 642.504C418.85 646.824 416.8 653.454 410.55 652.514C409.99 654.844 411.15 654.654 411.94 656.054C410.38 658.974 407.73 659.734 408.62 663.544C406.77 663.924 408.3 662.444 408.09 662.154C407.97 661.984 407.02 662.044 406.76 661.314C406.42 660.364 407.33 657.374 404.97 656.374C401.63 657.174 403.46 661.664 400.47 662.114C400.95 663.664 403.76 665.064 403.84 662.824C403.85 662.524 402.13 662.724 403.1 661.624L405.67 661.234L406.7 664.034L404.79 664.274C406.12 665.144 407.32 665.964 406.87 667.784C406.69 668.504 403.43 674.934 402.88 675.794C401.08 678.594 393.87 688.294 391.61 690.434C391.17 690.854 390.21 690.734 389.88 691.194C389.52 691.694 389.01 695.454 388.95 696.384C387.59 715.784 389.05 738.644 389.47 758.244C390.25 794.754 391.47 831.124 391.35 867.574C391.28 887.764 393.14 907.454 394.24 927.534C394.5 932.194 393.85 937.264 394.3 941.854C394.37 942.564 394.45 945.004 395.68 944.544L396.16 941.194L397.61 945.504L398.32 944.554L399.04 947.424C397.36 946.834 396.08 947.904 394.73 946.464C394.53 946.624 393.88 951.224 395.2 951.254C395.3 950.534 395.38 949.734 395.63 949.044C396.57 946.454 396.98 951.484 398.08 950.294C397.87 949.384 398.72 948.294 399.52 947.904L400.72 950.764C401.35 950.744 402.49 945.704 403.84 953.654C405.61 952.954 407.17 953.824 408.93 954.064C410.18 954.234 412.44 952.904 411.99 955.564H376.98L377 955.554ZM464.72 540.824C464.18 540.484 462.42 540.054 462.38 541.014C462.32 542.594 465.65 542.994 464.72 540.824ZM457.57 543.174L457.34 540.784C456.53 541.354 456.54 542.264 456.62 543.174H457.57ZM459.49 542.694H458.54C458.58 543.684 457.76 544.454 458.78 545.084L459.49 542.694ZM448.93 544.134C448.82 544.014 445.48 544.424 446.06 545.574C448.28 544.464 447.9 545.944 448.62 546.364C450.09 547.234 451.1 547.554 452.77 547.004C452.32 546.004 450.28 546.574 449.41 545.804C448.8 545.264 449.02 544.224 448.93 544.124V544.134ZM450.86 548.934H449.91V550.364H450.86V548.934ZM457.57 554.204C458.37 553.464 454 551.074 453.74 551.334C453.32 552.764 457.12 554.624 457.57 554.204ZM459.88 553.854C459.67 553.704 459.55 553.554 459.26 553.724C456.85 553.554 461.71 557.724 462.85 555.404C460.49 555.614 460.6 554.374 459.88 553.854ZM451.81 556.604C451.84 555.774 452.65 555.074 451.57 554.694C450.37 554.274 450.63 556.374 451.81 556.604ZM448.94 555.164H447.99V556.594H448.94V555.164ZM449.9 557.084H448.95C448.84 557.964 448.92 558.484 449.67 558.994L450.38 558.284L449.91 557.084H449.9ZM437.44 624.694L438.39 623.964L437.67 622.774L437.44 624.694ZM406.58 655.224C407.17 654.694 407.8 653.274 408.62 652.684L407.45 651.074C406.15 650.784 406.13 653.134 406.25 653.954L405.31 653.474C404.53 655.194 404.56 657.034 406.58 655.224ZM409.61 655.384C407.89 655.104 408.36 657.894 408.66 658.734L409.61 655.384ZM435.51 669.284C435.63 668.074 434.74 667.664 433.59 667.854L434.8 669.284H435.51ZM434.08 674.084C433.58 675.054 432.99 679.254 434.79 678.874C435.62 678.304 435.39 678.184 435.32 677.424C435.26 676.834 434.74 674.374 434.09 674.084H434.08ZM476.76 732.104L475.55 730.684C474.03 731.284 460.44 730.964 460.45 731.874C460.47 732.944 461.32 733.044 462.13 733.114C464.24 733.284 468.41 732.274 470.77 732.114C472.75 731.984 474.78 732.204 476.76 732.114V732.104Z" fill="black"/>
<path d="M485.39 943.564C484.12 944.794 484.4 939.664 483.96 939.254C485.94 940.284 486.23 941.554 485.39 943.564Z" fill="black"/>
<path d="M445.58 533.584H444.87C442.71 531.284 445.75 530.684 445.58 533.584Z" fill="black"/>
<path d="M491.15 954.114C491.91 954.874 490.48 956.304 489.72 955.544C488.96 954.784 490.39 953.354 491.15 954.114Z" fill="black"/>
<path d="M476.76 732.104C474.78 732.194 472.76 731.974 470.77 732.104C468.41 732.264 464.24 733.274 462.13 733.104C461.32 733.034 460.47 732.934 460.45 731.864C460.44 730.954 474.03 731.274 475.55 730.674L476.76 732.094V732.104Z" fill="white"/>
<path d="M406.58 655.223C404.55 657.033 404.53 655.193 405.31 653.473L406.25 653.954C406.12 653.134 406.14 650.784 407.45 651.074L408.62 652.684C407.81 653.274 407.17 654.693 406.58 655.223Z" fill="white"/>
<path d="M448.93 544.134C449.02 544.224 448.8 545.264 449.41 545.814C450.28 546.584 452.32 546.014 452.77 547.014C451.1 547.564 450.08 547.234 448.62 546.374C447.91 545.954 448.28 544.474 446.06 545.584C445.48 544.434 448.81 544.024 448.93 544.144V544.134Z" fill="white"/>
<path d="M434.08 674.084C434.74 674.374 435.26 676.834 435.31 677.424C435.38 678.174 435.62 678.304 434.78 678.874C432.98 679.254 433.58 675.064 434.07 674.084H434.08Z" fill="white"/>
<path d="M457.57 554.204C457.12 554.624 453.32 552.764 453.74 551.334C454 551.084 458.37 553.464 457.57 554.204Z" fill="white"/>
<path d="M459.88 553.854C460.6 554.374 460.49 555.614 462.85 555.404C461.7 557.724 456.84 553.554 459.26 553.724C459.55 553.554 459.67 553.694 459.88 553.854Z" fill="white"/>
<path d="M464.72 540.824C465.65 542.994 462.32 542.594 462.38 541.014C462.42 540.054 464.18 540.484 464.72 540.824Z" fill="white"/>
<path d="M409.61 655.384L408.66 658.734C408.36 657.894 407.9 655.104 409.61 655.384Z" fill="white"/>
<path d="M457.57 543.174H456.62C456.54 542.264 456.53 541.354 457.34 540.784L457.57 543.174Z" fill="white"/>
<path d="M459.49 542.694L458.78 545.084C457.76 544.454 458.59 543.684 458.54 542.684H459.49V542.694Z" fill="white"/>
<path d="M451.81 556.604C450.62 556.374 450.37 554.264 451.57 554.694C452.65 555.074 451.84 555.774 451.81 556.604Z" fill="white"/>
<path d="M449.9 557.084L450.37 558.284L449.66 558.994C448.92 558.484 448.83 557.964 448.94 557.084H449.89H449.9Z" fill="white"/>
<path d="M435.51 669.283H434.8L433.59 667.854C434.74 667.664 435.63 668.073 435.51 669.283Z" fill="white"/>
<path d="M450.85 548.934H449.9V550.364H450.85V548.934Z" fill="white"/>
<path d="M448.94 555.164H447.99V556.594H448.94V555.164Z" fill="white"/>
<path d="M437.44 624.694L437.67 622.774L438.39 623.964L437.44 624.694Z" fill="white"/>
</svg>
